<?xml version="1.0" encoding="UTF-8" standalone="no"?>
<svg
   height="298mm"
   viewBox="0 0 598.00001 298.00001"
   width="598mm"
   version="1.1"
   id="svg84"
   sodipodi:docname="v3.svg"
   inkscape:version="1.2.2 (732a01da63, 2022-12-09)"
   xmlns:inkscape="http://www.inkscape.org/namespaces/inkscape"
   xmlns:sodipodi="http://sodipodi.sourceforge.net/DTD/sodipodi-0.dtd"
   xmlns="http://www.w3.org/2000/svg"
   xmlns:svg="http://www.w3.org/2000/svg"
   xmlns:rdf="http://www.w3.org/1999/02/22-rdf-syntax-ns#"
   xmlns:cc="http://creativecommons.org/ns#"
   xmlns:dc="http://purl.org/dc/elements/1.1/">
  <defs
     id="defs88" />
  <sodipodi:namedview
     id="namedview86"
     pagecolor="#ffffff"
     bordercolor="#666666"
     borderopacity="1.0"
     inkscape:showpageshadow="2"
     inkscape:pageopacity="0.0"
     inkscape:pagecheckerboard="0"
     inkscape:deskcolor="#d1d1d1"
     inkscape:document-units="mm"
     showgrid="false"
     inkscape:zoom="0.36809443"
     inkscape:cx="1044.5689"
     inkscape:cy="744.37421"
     inkscape:window-width="1920"
     inkscape:window-height="1017"
     inkscape:window-x="-8"
     inkscape:window-y="-8"
     inkscape:window-maximized="1"
     inkscape:current-layer="svg84" />
  <!--
UniversalBox - Box with various options for different styles and lids

Created with Boxes.py (https://boxes.hackerspace-bamberg.de/)
Creation date: 2024-06-04 12:03:50
Command line (remove spaces between dashes): boxes UniversalBox - -x=250 - -h=170 - -thickness=6
Url: http://boxes.hackerspace-bamberg.de/boxes.py/UniversalBox?FingerJoint_angle=90.0&FingerJoint_style=rectangular&FingerJoint_surroundingspaces=2.0&FingerJoint_bottom_lip=0.0&FingerJoint_edge_width=1.0&FingerJoint_extra_length=0.0&FingerJoint_finger=2.0&FingerJoint_play=0.0&FingerJoint_space=2.0&FingerJoint_width=1.0&Stackable_angle=60&Stackable_bottom_stabilizers=0.0&Stackable_height=2.0&Stackable_holedistance=1.0&Stackable_width=4.0&Hinge_grip_percentage=0&Hinge_outset=0&Hinge_outset=1&Hinge_pinwidth=0.5&Hinge_style=outset&Hinge_axle=2.0&Hinge_grip_length=0&Hinge_hingestrength=1&CabinetHinge_bore=3.2&CabinetHinge_eyes_per_hinge=5&CabinetHinge_hinges=2&CabinetHinge_style=inside&CabinetHinge_eye=1.5&CabinetHinge_play=0.05&CabinetHinge_spacing=2.0&SlideOnLid_angle=90.0&SlideOnLid_hole_width=0&SlideOnLid_second_pin=0&SlideOnLid_second_pin=1&SlideOnLid_spring=both&SlideOnLid_style=rectangular&SlideOnLid_surroundingspaces=2.0&SlideOnLid_bottom_lip=0.0&SlideOnLid_edge_width=1.0&SlideOnLid_extra_length=0.0&SlideOnLid_finger=3.0&SlideOnLid_play=0.05&SlideOnLid_space=2.0&SlideOnLid_width=1.0&Click_angle=5.0&Click_bottom_radius=0.1&Click_depth=3.0&RoundedTriangleEdge_height=50.0&RoundedTriangleEdge_r_hole=2.0&RoundedTriangleEdge_radius=30.0&RoundedTriangleEdge_outset=1.0&Mounting_d_head=6.5&Mounting_d_shaft=3.0&Mounting_margin=0.125&Mounting_num=2&Mounting_side=back&Mounting_style=straight+edge%2C+within&HandleEdge_height=20.0&HandleEdge_hole_height=75.0&HandleEdge_hole_width=40%3A40&HandleEdge_on_sides=0&HandleEdge_on_sides=1&HandleEdge_radius=10.0&HandleEdge_outset=1.0&Flex_stretch=1.05&Flex_connection=1.0&Flex_distance=0.5&Flex_width=5.0&Lid_handle=none&Lid_style=none&Lid_handle_height=8.0&Lid_height=4.0&Lid_play=0.1&top_edge=e&bottom_edge=h&x=250&y=100&h=170&outside=0&outside=1&vertical_edges=finger+joints&thickness=6&format=svg&tabs=0.0&qr_code=0&debug=0&labels=0&labels=1&reference=100.0&inner_corners=loop&burn=0.1&language=fr&render=2
Url short: http://boxes.hackerspace-bamberg.de/boxes.py/UniversalBox?x=250&h=170&thickness=6
SettingsUrl: http://boxes.hackerspace-bamberg.de/boxes.py/UniversalBox?FingerJoint_angle=90.0&FingerJoint_style=rectangular&FingerJoint_surroundingspaces=2.0&FingerJoint_bottom_lip=0.0&FingerJoint_edge_width=1.0&FingerJoint_extra_length=0.0&FingerJoint_finger=2.0&FingerJoint_play=0.0&FingerJoint_space=2.0&FingerJoint_width=1.0&Stackable_angle=60&Stackable_bottom_stabilizers=0.0&Stackable_height=2.0&Stackable_holedistance=1.0&Stackable_width=4.0&Hinge_grip_percentage=0&Hinge_outset=0&Hinge_outset=1&Hinge_pinwidth=0.5&Hinge_style=outset&Hinge_axle=2.0&Hinge_grip_length=0&Hinge_hingestrength=1&CabinetHinge_bore=3.2&CabinetHinge_eyes_per_hinge=5&CabinetHinge_hinges=2&CabinetHinge_style=inside&CabinetHinge_eye=1.5&CabinetHinge_play=0.05&CabinetHinge_spacing=2.0&SlideOnLid_angle=90.0&SlideOnLid_hole_width=0&SlideOnLid_second_pin=0&SlideOnLid_second_pin=1&SlideOnLid_spring=both&SlideOnLid_style=rectangular&SlideOnLid_surroundingspaces=2.0&SlideOnLid_bottom_lip=0.0&SlideOnLid_edge_width=1.0&SlideOnLid_extra_length=0.0&SlideOnLid_finger=3.0&SlideOnLid_play=0.05&SlideOnLid_space=2.0&SlideOnLid_width=1.0&Click_angle=5.0&Click_bottom_radius=0.1&Click_depth=3.0&RoundedTriangleEdge_height=50.0&RoundedTriangleEdge_r_hole=2.0&RoundedTriangleEdge_radius=30.0&RoundedTriangleEdge_outset=1.0&Mounting_d_head=6.5&Mounting_d_shaft=3.0&Mounting_margin=0.125&Mounting_num=2&Mounting_side=back&Mounting_style=straight+edge%2C+within&HandleEdge_height=20.0&HandleEdge_hole_height=75.0&HandleEdge_hole_width=40%3A40&HandleEdge_on_sides=0&HandleEdge_on_sides=1&HandleEdge_radius=10.0&HandleEdge_outset=1.0&Flex_stretch=1.05&Flex_connection=1.0&Flex_distance=0.5&Flex_width=5.0&Lid_handle=none&Lid_style=none&Lid_handle_height=8.0&Lid_height=4.0&Lid_play=0.1&top_edge=e&bottom_edge=h&x=250&y=100&h=170&outside=0&outside=1&vertical_edges=finger+joints&thickness=6&format=svg&tabs=0.0&qr_code=0&debug=0&labels=0&labels=1&reference=100.0&inner_corners=loop&burn=0.1&language=fr&render=2
SettingsUrl short: http://boxes.hackerspace-bamberg.de/boxes.py/UniversalBox?x=250&h=170&thickness=6
-->
  <title
     id="title2">UniversalBox</title>
  <metadata
     id="metadata4">
    <rdf:RDF>
      <cc:Work>
        <dc:title>UniversalBox</dc:title>
        <dc:date>2024-06-04 12:03:50</dc:date>
        <dc:source>http://boxes.hackerspace-bamberg.de/boxes.py/UniversalBox?FingerJoint_angle=90.0&amp;FingerJoint_style=rectangular&amp;FingerJoint_surroundingspaces=2.0&amp;FingerJoint_bottom_lip=0.0&amp;FingerJoint_edge_width=1.0&amp;FingerJoint_extra_length=0.0&amp;FingerJoint_finger=2.0&amp;FingerJoint_play=0.0&amp;FingerJoint_space=2.0&amp;FingerJoint_width=1.0&amp;Stackable_angle=60&amp;Stackable_bottom_stabilizers=0.0&amp;Stackable_height=2.0&amp;Stackable_holedistance=1.0&amp;Stackable_width=4.0&amp;Hinge_grip_percentage=0&amp;Hinge_outset=0&amp;Hinge_outset=1&amp;Hinge_pinwidth=0.5&amp;Hinge_style=outset&amp;Hinge_axle=2.0&amp;Hinge_grip_length=0&amp;Hinge_hingestrength=1&amp;CabinetHinge_bore=3.2&amp;CabinetHinge_eyes_per_hinge=5&amp;CabinetHinge_hinges=2&amp;CabinetHinge_style=inside&amp;CabinetHinge_eye=1.5&amp;CabinetHinge_play=0.05&amp;CabinetHinge_spacing=2.0&amp;SlideOnLid_angle=90.0&amp;SlideOnLid_hole_width=0&amp;SlideOnLid_second_pin=0&amp;SlideOnLid_second_pin=1&amp;SlideOnLid_spring=both&amp;SlideOnLid_style=rectangular&amp;SlideOnLid_surroundingspaces=2.0&amp;SlideOnLid_bottom_lip=0.0&amp;SlideOnLid_edge_width=1.0&amp;SlideOnLid_extra_length=0.0&amp;SlideOnLid_finger=3.0&amp;SlideOnLid_play=0.05&amp;SlideOnLid_space=2.0&amp;SlideOnLid_width=1.0&amp;Click_angle=5.0&amp;Click_bottom_radius=0.1&amp;Click_depth=3.0&amp;RoundedTriangleEdge_height=50.0&amp;RoundedTriangleEdge_r_hole=2.0&amp;RoundedTriangleEdge_radius=30.0&amp;RoundedTriangleEdge_outset=1.0&amp;Mounting_d_head=6.5&amp;Mounting_d_shaft=3.0&amp;Mounting_margin=0.125&amp;Mounting_num=2&amp;Mounting_side=back&amp;Mounting_style=straight+edge%2C+within&amp;HandleEdge_height=20.0&amp;HandleEdge_hole_height=75.0&amp;HandleEdge_hole_width=40%3A40&amp;HandleEdge_on_sides=0&amp;HandleEdge_on_sides=1&amp;HandleEdge_radius=10.0&amp;HandleEdge_outset=1.0&amp;Flex_stretch=1.05&amp;Flex_connection=1.0&amp;Flex_distance=0.5&amp;Flex_width=5.0&amp;Lid_handle=none&amp;Lid_style=none&amp;Lid_handle_height=8.0&amp;Lid_height=4.0&amp;Lid_play=0.1&amp;top_edge=e&amp;bottom_edge=h&amp;x=250&amp;y=100&amp;h=170&amp;outside=0&amp;outside=1&amp;vertical_edges=finger+joints&amp;thickness=6&amp;format=svg&amp;tabs=0.0&amp;qr_code=0&amp;debug=0&amp;labels=0&amp;labels=1&amp;reference=100.0&amp;inner_corners=loop&amp;burn=0.1&amp;language=fr&amp;render=2</dc:source>
        <dc:source>http://boxes.hackerspace-bamberg.de/boxes.py/UniversalBox?x=250&amp;h=170&amp;thickness=6</dc:source>
        <dc:description>Box with various options for different styles and lids

Created with Boxes.py (https://boxes.hackerspace-bamberg.de/)
Command line: boxes UniversalBox --FingerJoint_angle=90.0 --FingerJoint_style=rectangular --FingerJoint_surroundingspaces=2.0 --FingerJoint_bottom_lip=0.0 --FingerJoint_edge_width=1.0 --FingerJoint_extra_length=0.0 --FingerJoint_finger=2.0 --FingerJoint_play=0.0 --FingerJoint_space=2.0 --FingerJoint_width=1.0 --Stackable_angle=60 --Stackable_bottom_stabilizers=0.0 --Stackable_height=2.0 --Stackable_holedistance=1.0 --Stackable_width=4.0 --Hinge_grip_percentage=0 --Hinge_outset=0 --Hinge_outset=1 --Hinge_pinwidth=0.5 --Hinge_style=outset --Hinge_axle=2.0 --Hinge_grip_length=0 --Hinge_hingestrength=1 --CabinetHinge_bore=3.2 --CabinetHinge_eyes_per_hinge=5 --CabinetHinge_hinges=2 --CabinetHinge_style=inside --CabinetHinge_eye=1.5 --CabinetHinge_play=0.05 --CabinetHinge_spacing=2.0 --SlideOnLid_angle=90.0 --SlideOnLid_hole_width=0 --SlideOnLid_second_pin=0 --SlideOnLid_second_pin=1 --SlideOnLid_spring=both --SlideOnLid_style=rectangular --SlideOnLid_surroundingspaces=2.0 --SlideOnLid_bottom_lip=0.0 --SlideOnLid_edge_width=1.0 --SlideOnLid_extra_length=0.0 --SlideOnLid_finger=3.0 --SlideOnLid_play=0.05 --SlideOnLid_space=2.0 --SlideOnLid_width=1.0 --Click_angle=5.0 --Click_bottom_radius=0.1 --Click_depth=3.0 --RoundedTriangleEdge_height=50.0 --RoundedTriangleEdge_r_hole=2.0 --RoundedTriangleEdge_radius=30.0 --RoundedTriangleEdge_outset=1.0 --Mounting_d_head=6.5 --Mounting_d_shaft=3.0 --Mounting_margin=0.125 --Mounting_num=2 --Mounting_side=back '--Mounting_style=straight edge, within' --HandleEdge_height=20.0 --HandleEdge_hole_height=75.0 --HandleEdge_hole_width=40:40 --HandleEdge_on_sides=0 --HandleEdge_on_sides=1 --HandleEdge_radius=10.0 --HandleEdge_outset=1.0 --Flex_stretch=1.05 --Flex_connection=1.0 --Flex_distance=0.5 --Flex_width=5.0 --Lid_handle=none --Lid_style=none --Lid_handle_height=8.0 --Lid_height=4.0 --Lid_play=0.1 --top_edge=e --bottom_edge=h --x=250 --y=100 --h=170 --outside=0 --outside=1 '--vertical_edges=finger joints' --thickness=6 --format=svg --tabs=0.0 --qr_code=0 --debug=0 --labels=0 --labels=1 --reference=100.0 --inner_corners=loop --burn=0.1
Command line short: boxes UniversalBox --x=250 --h=170 --thickness=6
Url: http://boxes.hackerspace-bamberg.de/boxes.py/UniversalBox?FingerJoint_angle=90.0&amp;FingerJoint_style=rectangular&amp;FingerJoint_surroundingspaces=2.0&amp;FingerJoint_bottom_lip=0.0&amp;FingerJoint_edge_width=1.0&amp;FingerJoint_extra_length=0.0&amp;FingerJoint_finger=2.0&amp;FingerJoint_play=0.0&amp;FingerJoint_space=2.0&amp;FingerJoint_width=1.0&amp;Stackable_angle=60&amp;Stackable_bottom_stabilizers=0.0&amp;Stackable_height=2.0&amp;Stackable_holedistance=1.0&amp;Stackable_width=4.0&amp;Hinge_grip_percentage=0&amp;Hinge_outset=0&amp;Hinge_outset=1&amp;Hinge_pinwidth=0.5&amp;Hinge_style=outset&amp;Hinge_axle=2.0&amp;Hinge_grip_length=0&amp;Hinge_hingestrength=1&amp;CabinetHinge_bore=3.2&amp;CabinetHinge_eyes_per_hinge=5&amp;CabinetHinge_hinges=2&amp;CabinetHinge_style=inside&amp;CabinetHinge_eye=1.5&amp;CabinetHinge_play=0.05&amp;CabinetHinge_spacing=2.0&amp;SlideOnLid_angle=90.0&amp;SlideOnLid_hole_width=0&amp;SlideOnLid_second_pin=0&amp;SlideOnLid_second_pin=1&amp;SlideOnLid_spring=both&amp;SlideOnLid_style=rectangular&amp;SlideOnLid_surroundingspaces=2.0&amp;SlideOnLid_bottom_lip=0.0&amp;SlideOnLid_edge_width=1.0&amp;SlideOnLid_extra_length=0.0&amp;SlideOnLid_finger=3.0&amp;SlideOnLid_play=0.05&amp;SlideOnLid_space=2.0&amp;SlideOnLid_width=1.0&amp;Click_angle=5.0&amp;Click_bottom_radius=0.1&amp;Click_depth=3.0&amp;RoundedTriangleEdge_height=50.0&amp;RoundedTriangleEdge_r_hole=2.0&amp;RoundedTriangleEdge_radius=30.0&amp;RoundedTriangleEdge_outset=1.0&amp;Mounting_d_head=6.5&amp;Mounting_d_shaft=3.0&amp;Mounting_margin=0.125&amp;Mounting_num=2&amp;Mounting_side=back&amp;Mounting_style=straight+edge%2C+within&amp;HandleEdge_height=20.0&amp;HandleEdge_hole_height=75.0&amp;HandleEdge_hole_width=40%3A40&amp;HandleEdge_on_sides=0&amp;HandleEdge_on_sides=1&amp;HandleEdge_radius=10.0&amp;HandleEdge_outset=1.0&amp;Flex_stretch=1.05&amp;Flex_connection=1.0&amp;Flex_distance=0.5&amp;Flex_width=5.0&amp;Lid_handle=none&amp;Lid_style=none&amp;Lid_handle_height=8.0&amp;Lid_height=4.0&amp;Lid_play=0.1&amp;top_edge=e&amp;bottom_edge=h&amp;x=250&amp;y=100&amp;h=170&amp;outside=0&amp;outside=1&amp;vertical_edges=finger+joints&amp;thickness=6&amp;format=svg&amp;tabs=0.0&amp;qr_code=0&amp;debug=0&amp;labels=0&amp;labels=1&amp;reference=100.0&amp;inner_corners=loop&amp;burn=0.1&amp;language=fr&amp;render=2
Url short: http://boxes.hackerspace-bamberg.de/boxes.py/UniversalBox?x=250&amp;h=170&amp;thickness=6
SettingsUrl: http://boxes.hackerspace-bamberg.de/boxes.py/UniversalBox?FingerJoint_angle=90.0&amp;FingerJoint_style=rectangular&amp;FingerJoint_surroundingspaces=2.0&amp;FingerJoint_bottom_lip=0.0&amp;FingerJoint_edge_width=1.0&amp;FingerJoint_extra_length=0.0&amp;FingerJoint_finger=2.0&amp;FingerJoint_play=0.0&amp;FingerJoint_space=2.0&amp;FingerJoint_width=1.0&amp;Stackable_angle=60&amp;Stackable_bottom_stabilizers=0.0&amp;Stackable_height=2.0&amp;Stackable_holedistance=1.0&amp;Stackable_width=4.0&amp;Hinge_grip_percentage=0&amp;Hinge_outset=0&amp;Hinge_outset=1&amp;Hinge_pinwidth=0.5&amp;Hinge_style=outset&amp;Hinge_axle=2.0&amp;Hinge_grip_length=0&amp;Hinge_hingestrength=1&amp;CabinetHinge_bore=3.2&amp;CabinetHinge_eyes_per_hinge=5&amp;CabinetHinge_hinges=2&amp;CabinetHinge_style=inside&amp;CabinetHinge_eye=1.5&amp;CabinetHinge_play=0.05&amp;CabinetHinge_spacing=2.0&amp;SlideOnLid_angle=90.0&amp;SlideOnLid_hole_width=0&amp;SlideOnLid_second_pin=0&amp;SlideOnLid_second_pin=1&amp;SlideOnLid_spring=both&amp;SlideOnLid_style=rectangular&amp;SlideOnLid_surroundingspaces=2.0&amp;SlideOnLid_bottom_lip=0.0&amp;SlideOnLid_edge_width=1.0&amp;SlideOnLid_extra_length=0.0&amp;SlideOnLid_finger=3.0&amp;SlideOnLid_play=0.05&amp;SlideOnLid_space=2.0&amp;SlideOnLid_width=1.0&amp;Click_angle=5.0&amp;Click_bottom_radius=0.1&amp;Click_depth=3.0&amp;RoundedTriangleEdge_height=50.0&amp;RoundedTriangleEdge_r_hole=2.0&amp;RoundedTriangleEdge_radius=30.0&amp;RoundedTriangleEdge_outset=1.0&amp;Mounting_d_head=6.5&amp;Mounting_d_shaft=3.0&amp;Mounting_margin=0.125&amp;Mounting_num=2&amp;Mounting_side=back&amp;Mounting_style=straight+edge%2C+within&amp;HandleEdge_height=20.0&amp;HandleEdge_hole_height=75.0&amp;HandleEdge_hole_width=40%3A40&amp;HandleEdge_on_sides=0&amp;HandleEdge_on_sides=1&amp;HandleEdge_radius=10.0&amp;HandleEdge_outset=1.0&amp;Flex_stretch=1.05&amp;Flex_connection=1.0&amp;Flex_distance=0.5&amp;Flex_width=5.0&amp;Lid_handle=none&amp;Lid_style=none&amp;Lid_handle_height=8.0&amp;Lid_height=4.0&amp;Lid_play=0.1&amp;top_edge=e&amp;bottom_edge=h&amp;x=250&amp;y=100&amp;h=170&amp;outside=0&amp;outside=1&amp;vertical_edges=finger+joints&amp;thickness=6&amp;format=svg&amp;tabs=0.0&amp;qr_code=0&amp;debug=0&amp;labels=0&amp;labels=1&amp;reference=100.0&amp;inner_corners=loop&amp;burn=0.1&amp;language=fr&amp;render=2
SettingsUrl short: http://boxes.hackerspace-bamberg.de/boxes.py/UniversalBox?x=250&amp;h=170&amp;thickness=6
</dc:description>
      </cc:Work>
    </rdf:RDF>
  </metadata>
  <g
     id="p-1"
     style="fill:none;stroke:#ff0000;stroke-width:0.02;stroke-linecap:round;stroke-linejoin:round;stroke-dasharray:none;stroke-opacity:1"
     transform="rotate(90,233.46017,227.20085)">
    <path
       d="m 37.662416,452.55638 h -5.9 c -0.1,0 0,0.1 0,0 v -5.8 c 0,-0.1 -0.1,0 0,0 h 11.8 c 0.1,0 0,-0.1 0,0 v 5.8 c 0,0.1 0.1,0 0,0 z"
       stroke="rgb(0,0,255)"
       stroke-width="0.20"
       id="path11"
       style="stroke:#ff0000;stroke-width:0.02;stroke-dasharray:none;stroke-opacity:1" />
    <path
       d="m 61.662416,452.55638 h -5.9 c -0.1,0 0,0.1 0,0 v -5.8 c 0,-0.1 -0.1,0 0,0 h 11.8 c 0.1,0 0,-0.1 0,0 v 5.8 c 0,0.1 0.1,0 0,0 z"
       stroke="rgb(0,0,255)"
       stroke-width="0.20"
       id="path13"
       style="stroke:#ff0000;stroke-width:0.02;stroke-dasharray:none;stroke-opacity:1" />
    <path
       d="m 85.662416,452.55638 h -5.9 c -0.1,0 0,0.1 0,0 v -5.8 c 0,-0.1 -0.1,0 0,0 h 11.8 c 0.1,0 0,-0.1 0,0 v 5.8 c 0,0.1 0.1,0 0,0 z"
       stroke="rgb(0,0,255)"
       stroke-width="0.20"
       id="path15"
       style="stroke:#ff0000;stroke-width:0.02;stroke-dasharray:none;stroke-opacity:1" />
    <path
       d="m 109.66242,452.55638 h -5.9 c -0.1,0 0,0.1 0,0 v -5.8 c 0,-0.1 -0.1,0 0,0 h 11.8 c 0.1,0 0,-0.1 0,0 v 5.8 c 0,0.1 0.1,0 0,0 z"
       stroke="rgb(0,0,255)"
       stroke-width="0.20"
       id="path17"
       style="stroke:#ff0000;stroke-width:0.02;stroke-dasharray:none;stroke-opacity:1" />
    <path
       d="m 133.66242,452.55638 h -5.9 c -0.1,0 0,0.1 0,0 v -5.8 c 0,-0.1 -0.1,0 0,0 h 11.8 c 0.1,0 0,-0.1 0,0 v 5.8 c 0,0.1 0.1,0 0,0 z"
       stroke="rgb(0,0,255)"
       stroke-width="0.20"
       id="path19"
       style="stroke:#ff0000;stroke-width:0.02;stroke-dasharray:none;stroke-opacity:1" />
    <path
       d="m 157.66242,452.55638 h -5.9 c -0.1,0 0,0.1 0,0 v -5.8 c 0,-0.1 -0.1,0 0,0 h 11.8 c 0.1,0 0,-0.1 0,0 v 5.8 c 0,0.1 0.1,0 0,0 z"
       stroke="rgb(0,0,255)"
       stroke-width="0.20"
       id="path21"
       style="stroke:#ff0000;stroke-width:0.02;stroke-dasharray:none;stroke-opacity:1" />
    <path
       d="m 181.66242,452.55638 h -5.9 c -0.1,0 0,0.1 0,0 v -5.8 c 0,-0.1 -0.1,0 0,0 h 11.8 c 0.1,0 0,-0.1 0,0 v 5.8 c 0,0.1 0.1,0 0,0 z"
       stroke="rgb(0,0,255)"
       stroke-width="0.20"
       id="path23"
       style="stroke:#ff0000;stroke-width:0.02;stroke-dasharray:none;stroke-opacity:1" />
    <path
       d="m 205.66242,452.55638 h -5.9 c -0.1,0 0,0.1 0,0 v -5.8 c 0,-0.1 -0.1,0 0,0 h 11.8 c 0.1,0 0,-0.1 0,0 v 5.8 c 0,0.1 0.1,0 0,0 z"
       stroke="rgb(0,0,255)"
       stroke-width="0.20"
       id="path25"
       style="stroke:#ff0000;stroke-width:0.02;stroke-dasharray:none;stroke-opacity:1" />
    <path
       d="m 229.66242,452.55638 h -5.9 c -0.1,0 0,0.1 0,0 v -5.8 c 0,-0.1 -0.1,0 0,0 h 11.8 c 0.1,0 0,-0.1 0,0 v 5.8 c 0,0.1 0.1,0 0,0 z"
       stroke="rgb(0,0,255)"
       stroke-width="0.20"
       id="path27"
       style="stroke:#ff0000;stroke-width:0.02;stroke-dasharray:none;stroke-opacity:1" />
    <text
       dominant-baseline="hanging"
       font-size="4px"
       style="font-style:normal;font-weight:normal;font-family:sans-serif;fill:#ff0000;stroke:#ff0000;stroke-width:0.02;stroke-dasharray:none;stroke-opacity:1"
       text-anchor="middle"
       transform="translate(135.1,369.6)"
       id="text29" />
    <path
       d="m 14.662416,458.75638 h 238.000004 6 c 0.055,0 0.1,-0.045 0.1,-0.1 v -19 c 0,-0.055 -0.045,-0.1 -0.1,-0.1 h -5.9 c -0.1,0 0,0.1 0,0 v -11.8 c 0,-0.1 -0.1,0 0,0 h 5.9 c 0.055,0 0.1,-0.045 0.1,-0.1 v -12 c 0,-0.055 -0.045,-0.1 -0.1,-0.1 h -5.9 c -0.1,0 0,0.1 0,0 v -11.8 c 0,-0.1 -0.1,0 0,0 h 5.9 c 0.055,0 0.1,-0.045 0.1,-0.1 v -12 c 0,-0.055 -0.045,-0.1 -0.1,-0.1 h -5.9 c -0.1,0 0,0.1 0,0 v -11.8 c 0,-0.1 -0.1,0 0,0 h 5.9 c 0.055,0 0.1,-0.045 0.1,-0.1 v -12 c 0,-0.055 -0.045,-0.1 -0.1,-0.1 h -5.9 c -0.1,0 0,0.1 0,0 v -11.8 c 0,-0.1 -0.1,0 0,0 h 5.9 c 0.055,0 0.1,-0.045 0.1,-0.1 v -12 c 0,-0.055 -0.045,-0.1 -0.1,-0.1 h -5.9 c -0.1,0 0,0.1 0,0 v -11.8 c 0,-0.1 -0.1,0 0,0 h 5.9 c 0.055,0 0.1,-0.045 0.1,-0.1 v -12 c 0,-0.055 -0.045,-0.1 -0.1,-0.1 h -5.9 c -0.1,0 0,0.1 0,0 v -11.8 c 0,-0.1 -0.1,0 0,0 h 5.9 c 0.055,0 0.1,-0.045 0.1,-0.1 v -19 c 0,-0.055 -0.045,-0.1 -0.1,-0.1 h -6 -238.000004 -6 c -0.055,0 -0.1,0.045 -0.1,0.1 v 19 c 0,0.055 0.045,0.1 0.1,0.1 h 5.9 c 0.1,0 0,-0.1 0,0 v 11.8 c 0,0.1 0.1,0 0,0 h -5.9 c -0.055,0 -0.1,0.045 -0.1,0.1 v 12 c 0,0.055 0.045,0.1 0.1,0.1 h 5.9 c 0.1,0 0,-0.1 0,0 v 11.8 c 0,0.1 0.1,0 0,0 h -5.9 c -0.055,0 -0.1,0.045 -0.1,0.1 v 12 c 0,0.055 0.045,0.1 0.1,0.1 h 5.9 c 0.1,0 0,-0.1 0,0 v 11.8 c 0,0.1 0.1,0 0,0 h -5.9 c -0.055,0 -0.1,0.045 -0.1,0.1 v 12 c 0,0.055 0.045,0.1 0.1,0.1 h 5.9 c 0.1,0 0,-0.1 0,0 v 11.8 c 0,0.1 0.1,0 0,0 h -5.9 c -0.055,0 -0.1,0.045 -0.1,0.1 v 12 c 0,0.055 0.045,0.1 0.1,0.1 h 5.9 c 0.1,0 0,-0.1 0,0 v 11.8 c 0,0.1 0.1,0 0,0 h -5.9 c -0.055,0 -0.1,0.045 -0.1,0.1 v 12 c 0,0.055 0.045,0.1 0.1,0.1 h 5.9 c 0.1,0 0,-0.1 0,0 v 11.8 c 0,0.1 0.1,0 0,0 h -5.9 c -0.055,0 -0.1,0.045 -0.1,0.1 v 19 c 0,0.055 0.045,0.1 0.1,0.1 h 6"
       stroke="rgb(0,0,0)"
       stroke-width="0.20"
       id="path31"
       style="stroke:#ff0000;stroke-width:0.02;stroke-dasharray:none;stroke-opacity:1" />
  </g>
  <g
     id="p-2"
     style="fill:none;stroke:#ff0000;stroke-width:0.02;stroke-linecap:round;stroke-linejoin:round;stroke-dasharray:none;stroke-opacity:1"
     transform="rotate(90,232.74137,225.04448)">
    <path
       d="m 39.1,277.2 h -5.9 c -0.1,0 0,0.1 0,0 v -5.8 c 0,-0.1 -0.1,0 0,0 H 45 c 0.1,0 0,-0.1 0,0 v 5.8 c 0,0.1 0.1,0 0,0 z"
       stroke="rgb(0,0,255)"
       stroke-width="0.20"
       id="path34"
       style="stroke:#ff0000;stroke-width:0.02;stroke-dasharray:none;stroke-opacity:1" />
    <path
       d="m 63.1,277.2 h -5.9 c -0.1,0 0,0.1 0,0 v -5.8 c 0,-0.1 -0.1,0 0,0 H 69 c 0.1,0 0,-0.1 0,0 v 5.8 c 0,0.1 0.1,0 0,0 z"
       stroke="rgb(0,0,255)"
       stroke-width="0.20"
       id="path36"
       style="stroke:#ff0000;stroke-width:0.02;stroke-dasharray:none;stroke-opacity:1" />
    <path
       d="m 87.1,277.2 h -5.9 c -0.1,0 0,0.1 0,0 v -5.8 c 0,-0.1 -0.1,0 0,0 H 93 c 0.1,0 0,-0.1 0,0 v 5.8 c 0,0.1 0.1,0 0,0 z"
       stroke="rgb(0,0,255)"
       stroke-width="0.20"
       id="path38"
       style="stroke:#ff0000;stroke-width:0.02;stroke-dasharray:none;stroke-opacity:1" />
    <path
       d="m 111.1,277.2 h -5.9 c -0.1,0 0,0.1 0,0 v -5.8 c 0,-0.1 -0.1,0 0,0 H 117 c 0.1,0 0,-0.1 0,0 v 5.8 c 0,0.1 0.1,0 0,0 z"
       stroke="rgb(0,0,255)"
       stroke-width="0.20"
       id="path40"
       style="stroke:#ff0000;stroke-width:0.02;stroke-dasharray:none;stroke-opacity:1" />
    <path
       d="m 135.1,277.2 h -5.9 c -0.1,0 0,0.1 0,0 v -5.8 c 0,-0.1 -0.1,0 0,0 H 141 c 0.1,0 0,-0.1 0,0 v 5.8 c 0,0.1 0.1,0 0,0 z"
       stroke="rgb(0,0,255)"
       stroke-width="0.20"
       id="path42"
       style="stroke:#ff0000;stroke-width:0.02;stroke-dasharray:none;stroke-opacity:1" />
    <path
       d="m 159.1,277.2 h -5.9 c -0.1,0 0,0.1 0,0 v -5.8 c 0,-0.1 -0.1,0 0,0 H 165 c 0.1,0 0,-0.1 0,0 v 5.8 c 0,0.1 0.1,0 0,0 z"
       stroke="rgb(0,0,255)"
       stroke-width="0.20"
       id="path44"
       style="stroke:#ff0000;stroke-width:0.02;stroke-dasharray:none;stroke-opacity:1" />
    <path
       d="m 183.1,277.2 h -5.9 c -0.1,0 0,0.1 0,0 v -5.8 c 0,-0.1 -0.1,0 0,0 H 189 c 0.1,0 0,-0.1 0,0 v 5.8 c 0,0.1 0.1,0 0,0 z"
       stroke="rgb(0,0,255)"
       stroke-width="0.20"
       id="path46"
       style="stroke:#ff0000;stroke-width:0.02;stroke-dasharray:none;stroke-opacity:1" />
    <path
       d="m 207.1,277.2 h -5.9 c -0.1,0 0,0.1 0,0 v -5.8 c 0,-0.1 -0.1,0 0,0 H 213 c 0.1,0 0,-0.1 0,0 v 5.8 c 0,0.1 0.1,0 0,0 z"
       stroke="rgb(0,0,255)"
       stroke-width="0.20"
       id="path48"
       style="stroke:#ff0000;stroke-width:0.02;stroke-dasharray:none;stroke-opacity:1" />
    <path
       d="m 231.1,277.2 h -5.9 c -0.1,0 0,0.1 0,0 v -5.8 c 0,-0.1 -0.1,0 0,0 H 237 c 0.1,0 0,-0.1 0,0 v 5.8 c 0,0.1 0.1,0 0,0 z"
       stroke="rgb(0,0,255)"
       stroke-width="0.20"
       id="path50"
       style="stroke:#ff0000;stroke-width:0.02;stroke-dasharray:none;stroke-opacity:1" />
    <path
       d="m 16.1,283.4 h 238 6 c 0.055,0 0.1,-0.045 0.1,-0.1 v -19 c 0,-0.055 -0.045,-0.1 -0.1,-0.1 h -5.9 c -0.1,0 0,0.1 0,0 v -11.8 c 0,-0.1 -0.1,0 0,0 h 5.9 c 0.055,0 0.1,-0.045 0.1,-0.1 v -12 c 0,-0.055 -0.045,-0.1 -0.1,-0.1 h -5.9 c -0.1,0 0,0.1 0,0 v -11.8 c 0,-0.1 -0.1,0 0,0 h 5.9 c 0.055,0 0.1,-0.045 0.1,-0.1 v -12 c 0,-0.055 -0.045,-0.1 -0.1,-0.1 h -5.9 c -0.1,0 0,0.1 0,0 v -11.8 c 0,-0.1 -0.1,0 0,0 h 5.9 c 0.055,0 0.1,-0.045 0.1,-0.1 v -12 c 0,-0.055 -0.045,-0.1 -0.1,-0.1 h -5.9 c -0.1,0 0,0.1 0,0 v -11.8 c 0,-0.1 -0.1,0 0,0 h 5.9 c 0.055,0 0.1,-0.045 0.1,-0.1 v -12 c 0,-0.055 -0.045,-0.1 -0.1,-0.1 h -5.9 c -0.1,0 0,0.1 0,0 v -11.8 c 0,-0.1 -0.1,0 0,0 h 5.9 c 0.055,0 0.1,-0.045 0.1,-0.1 v -12 c 0,-0.055 -0.045,-0.1 -0.1,-0.1 h -5.9 c -0.1,0 0,0.1 0,0 v -11.8 c 0,-0.1 -0.1,0 0,0 h 5.9 c 0.055,0 0.1,-0.045 0.1,-0.1 v -19 c 0,-0.055 -0.045,-0.1 -0.1,-0.1 h -6 -238 -6 c -0.055,0 -0.1,0.045 -0.1,0.1 v 19 c 0,0.055 0.045,0.1 0.1,0.1 H 16 c 0.1,0 0,-0.1 0,0 v 11.8 c 0,0.1 0.1,0 0,0 h -5.9 c -0.055,0 -0.1,0.045 -0.1,0.1 v 12 c 0,0.055 0.045,0.1 0.1,0.1 H 16 c 0.1,0 0,-0.1 0,0 v 11.8 c 0,0.1 0.1,0 0,0 h -5.9 c -0.055,0 -0.1,0.045 -0.1,0.1 v 12 c 0,0.055 0.045,0.1 0.1,0.1 H 16 c 0.1,0 0,-0.1 0,0 v 11.8 c 0,0.1 0.1,0 0,0 h -5.9 c -0.055,0 -0.1,0.045 -0.1,0.1 v 12 c 0,0.055 0.045,0.1 0.1,0.1 H 16 c 0.1,0 0,-0.1 0,0 v 11.8 c 0,0.1 0.1,0 0,0 h -5.9 c -0.055,0 -0.1,0.045 -0.1,0.1 v 12 c 0,0.055 0.045,0.1 0.1,0.1 H 16 c 0.1,0 0,-0.1 0,0 v 11.8 c 0,0.1 0.1,0 0,0 h -5.9 c -0.055,0 -0.1,0.045 -0.1,0.1 v 12 c 0,0.055 0.045,0.1 0.1,0.1 H 16 c 0.1,0 0,-0.1 0,0 v 11.8 c 0,0.1 0.1,0 0,0 h -5.9 c -0.055,0 -0.1,0.045 -0.1,0.1 v 19 c 0,0.055 0.045,0.1 0.1,0.1 h 6"
       stroke="rgb(0,0,0)"
       stroke-width="0.20"
       id="path54"
       style="stroke:#ff0000;stroke-width:0.02;stroke-dasharray:none;stroke-opacity:1" />
  </g>
  <g
     id="p-3"
     style="fill:none;stroke:#ff0000;stroke-width:0.02;stroke-linecap:round;stroke-linejoin:round;stroke-dasharray:none;stroke-opacity:1"
     transform="rotate(180,303.28557,56.648375)">
    <path
       d="M 16.1,104.2 H 33 c 0.1,0 0,-0.1 0,0 v 5.9 c 0,0.055 0.045,0.1 0.1,0.1 h 12 c 0.055,0 0.1,-0.045 0.1,-0.1 v -5.9 c 0,-0.1 -0.1,0 0,0 H 57 c 0.1,0 0,-0.1 0,0 v 5.9 c 0,0.055 0.045,0.1 0.1,0.1 h 12 c 0.055,0 0.1,-0.045 0.1,-0.1 v -5.9 c 0,-0.1 -0.1,0 0,0 H 81 c 0.1,0 0,-0.1 0,0 v 5.9 c 0,0.055 0.045,0.1 0.1,0.1 h 12 c 0.055,0 0.1,-0.045 0.1,-0.1 v -5.9 c 0,-0.1 -0.1,0 0,0 H 105 c 0.1,0 0,-0.1 0,0 v 5.9 c 0,0.055 0.045,0.1 0.1,0.1 h 12 c 0.055,0 0.1,-0.045 0.1,-0.1 v -5.9 c 0,-0.1 -0.1,0 0,0 H 129 c 0.1,0 0,-0.1 0,0 v 5.9 c 0,0.055 0.045,0.1 0.1,0.1 h 12 c 0.055,0 0.1,-0.045 0.1,-0.1 v -5.9 c 0,-0.1 -0.1,0 0,0 H 153 c 0.1,0 0,-0.1 0,0 v 5.9 c 0,0.055 0.045,0.1 0.1,0.1 h 12 c 0.055,0 0.1,-0.045 0.1,-0.1 v -5.9 c 0,-0.1 -0.1,0 0,0 H 177 c 0.1,0 0,-0.1 0,0 v 5.9 c 0,0.055 0.045,0.1 0.1,0.1 h 12 c 0.055,0 0.1,-0.045 0.1,-0.1 v -5.9 c 0,-0.1 -0.1,0 0,0 H 201 c 0.1,0 0,-0.1 0,0 v 5.9 c 0,0.055 0.045,0.1 0.1,0.1 h 12 c 0.055,0 0.1,-0.045 0.1,-0.1 v -5.9 c 0,-0.1 -0.1,0 0,0 H 225 c 0.1,0 0,-0.1 0,0 v 5.9 c 0,0.055 0.045,0.1 0.1,0.1 h 12 c 0.055,0 0.1,-0.045 0.1,-0.1 v -5.9 c 0,-0.1 -0.1,0 0,0 h 16.9 c 0.055,0 0.1,-0.045 0.1,-0.1 V 90.2 c 0,-0.1 -0.1,0 0,0 h 5.9 c 0.055,0 0.1,-0.045 0.1,-0.1 v -12 c 0,-0.055 -0.045,-0.1 -0.1,-0.1 h -5.9 c -0.1,0 0,0.1 0,0 V 66.2 c 0,-0.1 -0.1,0 0,0 h 5.9 c 0.055,0 0.1,-0.045 0.1,-0.1 v -12 c 0,-0.055 -0.045,-0.1 -0.1,-0.1 h -5.9 c -0.1,0 0,0.1 0,0 V 42.2 c 0,-0.1 -0.1,0 0,0 h 5.9 c 0.055,0 0.1,-0.045 0.1,-0.1 v -12 c 0,-0.055 -0.045,-0.1 -0.1,-0.1 h -5.9 c -0.1,0 0,0.1 0,0 V 16.1 c 0,-0.055 -0.045,-0.1 -0.1,-0.1 h -16.9 c -0.1,0 0,0.1 0,0 v -5.9 c 0,-0.055 -0.045,-0.1 -0.1,-0.1 h -12 c -0.055,0 -0.1,0.045 -0.1,0.1 V 16 c 0,0.1 0.1,0 0,0 h -11.8 c -0.1,0 0,0.1 0,0 v -5.9 c 0,-0.055 -0.045,-0.1 -0.1,-0.1 h -12 c -0.055,0 -0.1,0.045 -0.1,0.1 V 16 c 0,0.1 0.1,0 0,0 h -11.8 c -0.1,0 0,0.1 0,0 v -5.9 c 0,-0.055 -0.045,-0.1 -0.1,-0.1 h -12 c -0.055,0 -0.1,0.045 -0.1,0.1 V 16 c 0,0.1 0.1,0 0,0 h -11.8 c -0.1,0 0,0.1 0,0 v -5.9 c 0,-0.055 -0.045,-0.1 -0.1,-0.1 h -12 c -0.055,0 -0.1,0.045 -0.1,0.1 V 16 c 0,0.1 0.1,0 0,0 h -11.8 c -0.1,0 0,0.1 0,0 v -5.9 c 0,-0.055 -0.045,-0.1 -0.1,-0.1 h -12 c -0.055,0 -0.1,0.045 -0.1,0.1 V 16 c 0,0.1 0.1,0 0,0 h -11.8 c -0.1,0 0,0.1 0,0 v -5.9 c 0,-0.055 -0.045,-0.1 -0.1,-0.1 h -12 c -0.055,0 -0.1,0.045 -0.1,0.1 V 16 c 0,0.1 0.1,0 0,0 H 93.2 c -0.1,0 0,0.1 0,0 V 10.1 C 93.2,10.045 93.155,10 93.1,10 h -12 C 81.045,10 81,10.045 81,10.1 V 16 c 0,0.1 0.1,0 0,0 H 69.2 c -0.1,0 0,0.1 0,0 V 10.1 C 69.2,10.045 69.155,10 69.1,10 h -12 C 57.045,10 57,10.045 57,10.1 V 16 c 0,0.1 0.1,0 0,0 H 45.2 c -0.1,0 0,0.1 0,0 V 10.1 C 45.2,10.045 45.155,10 45.1,10 h -12 C 33.045,10 33,10.045 33,10.1 V 16 c 0,0.1 0.1,0 0,0 H 16.1 C 16.045,16 16,16.045 16,16.1 V 30 c 0,0.1 0.1,0 0,0 H 10.1 C 10.045,30 10,30.045 10,30.1 v 12 c 0,0.055 0.045,0.1 0.1,0.1 H 16 c 0.1,0 0,-0.1 0,0 V 54 c 0,0.1 0.1,0 0,0 H 10.1 C 10.045,54 10,54.045 10,54.1 v 12 c 0,0.055 0.045,0.1 0.1,0.1 H 16 c 0.1,0 0,-0.1 0,0 V 78 c 0,0.1 0.1,0 0,0 H 10.1 C 10.045,78 10,78.045 10,78.1 v 12 c 0,0.055 0.045,0.1 0.1,0.1 H 16 c 0.1,0 0,-0.1 0,0 v 13.9 c 0,0.055 0.045,0.1 0.1,0.1"
       stroke="rgb(0,0,0)"
       stroke-width="0.20"
       id="path59"
       style="stroke:#ff0000;stroke-width:0.02;stroke-dasharray:none;stroke-opacity:1" />
  </g>
  <g
     id="p-4"
     style="fill:none;stroke-linecap:round;stroke-linejoin:round;stroke-width:0.02;stroke-dasharray:none;stroke:#ff0000;stroke-opacity:1"
     transform="rotate(180,408.98225,282.42668)">
    <path
       d="m 289.3,450.4 h -5.9 c -0.1,0 0,0.1 0,0 v -5.8 c 0,-0.1 -0.1,0 0,0 h 11.8 c 0.1,0 0,-0.1 0,0 v 5.8 c 0,0.1 0.1,0 0,0 z"
       stroke="rgb(0,0,255)"
       stroke-width="0.20"
       id="path62"
       style="stroke:#ff0000;stroke-width:0.02;stroke-dasharray:none;stroke-opacity:1" />
    <path
       d="m 313.3,450.4 h -5.9 c -0.1,0 0,0.1 0,0 v -5.8 c 0,-0.1 -0.1,0 0,0 h 11.8 c 0.1,0 0,-0.1 0,0 v 5.8 c 0,0.1 0.1,0 0,0 z"
       stroke="rgb(0,0,255)"
       stroke-width="0.20"
       id="path64"
       style="stroke:#ff0000;stroke-width:0.02;stroke-dasharray:none;stroke-opacity:1" />
    <path
       d="m 337.3,450.4 h -5.9 c -0.1,0 0,0.1 0,0 v -5.8 c 0,-0.1 -0.1,0 0,0 h 11.8 c 0.1,0 0,-0.1 0,0 v 5.8 c 0,0.1 0.1,0 0,0 z"
       stroke="rgb(0,0,255)"
       stroke-width="0.20"
       id="path66"
       style="stroke:#ff0000;stroke-width:0.02;stroke-dasharray:none;stroke-opacity:1" />
    <path
       d="m 269.3,456.6 h 88 c 0.055,0 0.1,-0.045 0.1,-0.1 v -18.9 c 0,-0.1 -0.1,0 0,0 h 5.9 c 0.055,0 0.1,-0.045 0.1,-0.1 v -12 c 0,-0.055 -0.045,-0.1 -0.1,-0.1 h -5.9 c -0.1,0 0,0.1 0,0 v -11.8 c 0,-0.1 -0.1,0 0,0 h 5.9 c 0.055,0 0.1,-0.045 0.1,-0.1 v -12 c 0,-0.055 -0.045,-0.1 -0.1,-0.1 h -5.9 c -0.1,0 0,0.1 0,0 v -11.8 c 0,-0.1 -0.1,0 0,0 h 5.9 c 0.055,0 0.1,-0.045 0.1,-0.1 v -12 c 0,-0.055 -0.045,-0.1 -0.1,-0.1 h -5.9 c -0.1,0 0,0.1 0,0 v -11.8 c 0,-0.1 -0.1,0 0,0 h 5.9 c 0.055,0 0.1,-0.045 0.1,-0.1 v -12 c 0,-0.055 -0.045,-0.1 -0.1,-0.1 h -5.9 c -0.1,0 0,0.1 0,0 v -11.8 c 0,-0.1 -0.1,0 0,0 h 5.9 c 0.055,0 0.1,-0.045 0.1,-0.1 v -12 c 0,-0.055 -0.045,-0.1 -0.1,-0.1 h -5.9 c -0.1,0 0,0.1 0,0 v -11.8 c 0,-0.1 -0.1,0 0,0 h 5.9 c 0.055,0 0.1,-0.045 0.1,-0.1 v -12 c 0,-0.055 -0.045,-0.1 -0.1,-0.1 h -5.9 c -0.1,0 0,0.1 0,0 v -18.9 c 0,-0.055 -0.045,-0.1 -0.1,-0.1 h -88 c -0.055,0 -0.1,0.045 -0.1,0.1 v 18.9 c 0,0.1 0.1,0 0,0 h -5.9 c -0.055,0 -0.1,0.045 -0.1,0.1 v 12 c 0,0.055 0.045,0.1 0.1,0.1 h 5.9 c 0.1,0 0,-0.1 0,0 v 11.8 c 0,0.1 0.1,0 0,0 h -5.9 c -0.055,0 -0.1,0.045 -0.1,0.1 v 12 c 0,0.055 0.045,0.1 0.1,0.1 h 5.9 c 0.1,0 0,-0.1 0,0 v 11.8 c 0,0.1 0.1,0 0,0 h -5.9 c -0.055,0 -0.1,0.045 -0.1,0.1 v 12 c 0,0.055 0.045,0.1 0.1,0.1 h 5.9 c 0.1,0 0,-0.1 0,0 v 11.8 c 0,0.1 0.1,0 0,0 h -5.9 c -0.055,0 -0.1,0.045 -0.1,0.1 v 12 c 0,0.055 0.045,0.1 0.1,0.1 h 5.9 c 0.1,0 0,-0.1 0,0 v 11.8 c 0,0.1 0.1,0 0,0 h -5.9 c -0.055,0 -0.1,0.045 -0.1,0.1 v 12 c 0,0.055 0.045,0.1 0.1,0.1 h 5.9 c 0.1,0 0,-0.1 0,0 v 11.8 c 0,0.1 0.1,0 0,0 h -5.9 c -0.055,0 -0.1,0.045 -0.1,0.1 v 12 c 0,0.055 0.045,0.1 0.1,0.1 h 5.9 c 0.1,0 0,-0.1 0,0 v 18.9 c 0,0.055 0.045,0.1 0.1,0.1"
       stroke="rgb(0,0,0)"
       stroke-width="0.20"
       id="path70"
       style="stroke:#ff0000;stroke-width:0.02;stroke-dasharray:none;stroke-opacity:1" />
  </g>
  <g
     id="p-5"
     style="fill:none;stroke:#ff0000;stroke-width:0.02;stroke-linecap:round;stroke-linejoin:round;stroke-dasharray:none;stroke-opacity:1"
     transform="rotate(180,357.09434,195.70335)">
    <path
       d="m 289.3,277.2 h -5.9 c -0.1,0 0,0.1 0,0 v -5.8 c 0,-0.1 -0.1,0 0,0 h 11.8 c 0.1,0 0,-0.1 0,0 v 5.8 c 0,0.1 0.1,0 0,0 z"
       stroke="rgb(0,0,255)"
       stroke-width="0.20"
       id="path73"
       style="stroke:#ff0000;stroke-width:0.02;stroke-dasharray:none;stroke-opacity:1" />
    <path
       d="m 313.3,277.2 h -5.9 c -0.1,0 0,0.1 0,0 v -5.8 c 0,-0.1 -0.1,0 0,0 h 11.8 c 0.1,0 0,-0.1 0,0 v 5.8 c 0,0.1 0.1,0 0,0 z"
       stroke="rgb(0,0,255)"
       stroke-width="0.20"
       id="path75"
       style="stroke:#ff0000;stroke-width:0.02;stroke-dasharray:none;stroke-opacity:1" />
    <path
       d="m 337.3,277.2 h -5.9 c -0.1,0 0,0.1 0,0 v -5.8 c 0,-0.1 -0.1,0 0,0 h 11.8 c 0.1,0 0,-0.1 0,0 v 5.8 c 0,0.1 0.1,0 0,0 z"
       stroke="rgb(0,0,255)"
       stroke-width="0.20"
       id="path77"
       style="stroke:#ff0000;stroke-width:0.02;stroke-dasharray:none;stroke-opacity:1" />
    <path
       d="m 269.3,283.4 h 88 c 0.055,0 0.1,-0.045 0.1,-0.1 v -18.9 c 0,-0.1 -0.1,0 0,0 h 5.9 c 0.055,0 0.1,-0.045 0.1,-0.1 v -12 c 0,-0.055 -0.045,-0.1 -0.1,-0.1 h -5.9 c -0.1,0 0,0.1 0,0 v -11.8 c 0,-0.1 -0.1,0 0,0 h 5.9 c 0.055,0 0.1,-0.045 0.1,-0.1 v -12 c 0,-0.055 -0.045,-0.1 -0.1,-0.1 h -5.9 c -0.1,0 0,0.1 0,0 v -11.8 c 0,-0.1 -0.1,0 0,0 h 5.9 c 0.055,0 0.1,-0.045 0.1,-0.1 v -12 c 0,-0.055 -0.045,-0.1 -0.1,-0.1 h -5.9 c -0.1,0 0,0.1 0,0 v -11.8 c 0,-0.1 -0.1,0 0,0 h 5.9 c 0.055,0 0.1,-0.045 0.1,-0.1 v -12 c 0,-0.055 -0.045,-0.1 -0.1,-0.1 h -5.9 c -0.1,0 0,0.1 0,0 v -11.8 c 0,-0.1 -0.1,0 0,0 h 5.9 c 0.055,0 0.1,-0.045 0.1,-0.1 v -12 c 0,-0.055 -0.045,-0.1 -0.1,-0.1 h -5.9 c -0.1,0 0,0.1 0,0 v -11.8 c 0,-0.1 -0.1,0 0,0 h 5.9 c 0.055,0 0.1,-0.045 0.1,-0.1 v -12 c 0,-0.055 -0.045,-0.1 -0.1,-0.1 h -5.9 c -0.1,0 0,0.1 0,0 v -18.9 c 0,-0.055 -0.045,-0.1 -0.1,-0.1 h -88 c -0.055,0 -0.1,0.045 -0.1,0.1 v 18.9 c 0,0.1 0.1,0 0,0 h -5.9 c -0.055,0 -0.1,0.045 -0.1,0.1 v 12 c 0,0.055 0.045,0.1 0.1,0.1 h 5.9 c 0.1,0 0,-0.1 0,0 v 11.8 c 0,0.1 0.1,0 0,0 h -5.9 c -0.055,0 -0.1,0.045 -0.1,0.1 v 12 c 0,0.055 0.045,0.1 0.1,0.1 h 5.9 c 0.1,0 0,-0.1 0,0 v 11.8 c 0,0.1 0.1,0 0,0 h -5.9 c -0.055,0 -0.1,0.045 -0.1,0.1 v 12 c 0,0.055 0.045,0.1 0.1,0.1 h 5.9 c 0.1,0 0,-0.1 0,0 v 11.8 c 0,0.1 0.1,0 0,0 h -5.9 c -0.055,0 -0.1,0.045 -0.1,0.1 v 12 c 0,0.055 0.045,0.1 0.1,0.1 h 5.9 c 0.1,0 0,-0.1 0,0 v 11.8 c 0,0.1 0.1,0 0,0 h -5.9 c -0.055,0 -0.1,0.045 -0.1,0.1 v 12 c 0,0.055 0.045,0.1 0.1,0.1 h 5.9 c 0.1,0 0,-0.1 0,0 v 11.8 c 0,0.1 0.1,0 0,0 h -5.9 c -0.055,0 -0.1,0.045 -0.1,0.1 v 12 c 0,0.055 0.045,0.1 0.1,0.1 h 5.9 c 0.1,0 0,-0.1 0,0 v 18.9 c 0,0.055 0.045,0.1 0.1,0.1"
       stroke="rgb(0,0,0)"
       stroke-width="0.20"
       id="path81"
       style="stroke:#ff0000;stroke-width:0.02;stroke-dasharray:none;stroke-opacity:1" />
  </g>
  <rect
     style="fill:none;stroke:#ff0000;stroke-width:0.02;stroke-linecap:square;stroke-miterlimit:1.2;stroke-dasharray:none;stroke-opacity:1;paint-order:fill markers stroke"
     id="rect1035"
     width="166"
     height="103"
     x="44.403099"
     y="-138.50464"
     transform="rotate(90)" />
  <rect
     style="fill:none;stroke:#ff0000;stroke-width:0.02;stroke-linecap:square;stroke-miterlimit:1.2;stroke-dasharray:none;stroke-opacity:1;paint-order:fill markers stroke"
     id="rect489"
     width="30"
     height="10"
     x="112.40311"
     y="-219.91882"
     rx="5"
     transform="rotate(90)" />
</svg>
