<?xml version='1.0' encoding='utf-8'?>
<svg height="479.80mm" viewBox="0.0 0.0 373.40 479.80" width="373.40mm" xmlns="http://www.w3.org/2000/svg" xmlns:cc="http://creativecommons.org/ns#" xmlns:dc="http://purl.org/dc/elements/1.1/" xmlns:inkscape="http://www.inkscape.org/namespaces/inkscape" xmlns:rdf="http://www.w3.org/1999/02/22-rdf-syntax-ns#" xmlns:svg="http://www.w3.org/2000/svg" xmlns:xlink="http://www.w3.org/1999/xlink">
<!--
UniversalBox - Box with various options for different styles and lids

Created with Boxes.py (https://boxes.hackerspace-bamberg.de/)
Creation date: 2024-06-04 12:03:50
Command line (remove spaces between dashes): boxes UniversalBox - -x=250 - -h=170 - -thickness=6
Url: http://boxes.hackerspace-bamberg.de/boxes.py/UniversalBox?FingerJoint_angle=90.0&FingerJoint_style=rectangular&FingerJoint_surroundingspaces=2.0&FingerJoint_bottom_lip=0.0&FingerJoint_edge_width=1.0&FingerJoint_extra_length=0.0&FingerJoint_finger=2.0&FingerJoint_play=0.0&FingerJoint_space=2.0&FingerJoint_width=1.0&Stackable_angle=60&Stackable_bottom_stabilizers=0.0&Stackable_height=2.0&Stackable_holedistance=1.0&Stackable_width=4.0&Hinge_grip_percentage=0&Hinge_outset=0&Hinge_outset=1&Hinge_pinwidth=0.5&Hinge_style=outset&Hinge_axle=2.0&Hinge_grip_length=0&Hinge_hingestrength=1&CabinetHinge_bore=3.2&CabinetHinge_eyes_per_hinge=5&CabinetHinge_hinges=2&CabinetHinge_style=inside&CabinetHinge_eye=1.5&CabinetHinge_play=0.05&CabinetHinge_spacing=2.0&SlideOnLid_angle=90.0&SlideOnLid_hole_width=0&SlideOnLid_second_pin=0&SlideOnLid_second_pin=1&SlideOnLid_spring=both&SlideOnLid_style=rectangular&SlideOnLid_surroundingspaces=2.0&SlideOnLid_bottom_lip=0.0&SlideOnLid_edge_width=1.0&SlideOnLid_extra_length=0.0&SlideOnLid_finger=3.0&SlideOnLid_play=0.05&SlideOnLid_space=2.0&SlideOnLid_width=1.0&Click_angle=5.0&Click_bottom_radius=0.1&Click_depth=3.0&RoundedTriangleEdge_height=50.0&RoundedTriangleEdge_r_hole=2.0&RoundedTriangleEdge_radius=30.0&RoundedTriangleEdge_outset=1.0&Mounting_d_head=6.5&Mounting_d_shaft=3.0&Mounting_margin=0.125&Mounting_num=2&Mounting_side=back&Mounting_style=straight+edge%2C+within&HandleEdge_height=20.0&HandleEdge_hole_height=75.0&HandleEdge_hole_width=40%3A40&HandleEdge_on_sides=0&HandleEdge_on_sides=1&HandleEdge_radius=10.0&HandleEdge_outset=1.0&Flex_stretch=1.05&Flex_connection=1.0&Flex_distance=0.5&Flex_width=5.0&Lid_handle=none&Lid_style=none&Lid_handle_height=8.0&Lid_height=4.0&Lid_play=0.1&top_edge=e&bottom_edge=h&x=250&y=100&h=170&outside=0&outside=1&vertical_edges=finger+joints&thickness=6&format=svg&tabs=0.0&qr_code=0&debug=0&labels=0&labels=1&reference=100.0&inner_corners=loop&burn=0.1&language=fr&render=2
Url short: http://boxes.hackerspace-bamberg.de/boxes.py/UniversalBox?x=250&h=170&thickness=6
SettingsUrl: http://boxes.hackerspace-bamberg.de/boxes.py/UniversalBox?FingerJoint_angle=90.0&FingerJoint_style=rectangular&FingerJoint_surroundingspaces=2.0&FingerJoint_bottom_lip=0.0&FingerJoint_edge_width=1.0&FingerJoint_extra_length=0.0&FingerJoint_finger=2.0&FingerJoint_play=0.0&FingerJoint_space=2.0&FingerJoint_width=1.0&Stackable_angle=60&Stackable_bottom_stabilizers=0.0&Stackable_height=2.0&Stackable_holedistance=1.0&Stackable_width=4.0&Hinge_grip_percentage=0&Hinge_outset=0&Hinge_outset=1&Hinge_pinwidth=0.5&Hinge_style=outset&Hinge_axle=2.0&Hinge_grip_length=0&Hinge_hingestrength=1&CabinetHinge_bore=3.2&CabinetHinge_eyes_per_hinge=5&CabinetHinge_hinges=2&CabinetHinge_style=inside&CabinetHinge_eye=1.5&CabinetHinge_play=0.05&CabinetHinge_spacing=2.0&SlideOnLid_angle=90.0&SlideOnLid_hole_width=0&SlideOnLid_second_pin=0&SlideOnLid_second_pin=1&SlideOnLid_spring=both&SlideOnLid_style=rectangular&SlideOnLid_surroundingspaces=2.0&SlideOnLid_bottom_lip=0.0&SlideOnLid_edge_width=1.0&SlideOnLid_extra_length=0.0&SlideOnLid_finger=3.0&SlideOnLid_play=0.05&SlideOnLid_space=2.0&SlideOnLid_width=1.0&Click_angle=5.0&Click_bottom_radius=0.1&Click_depth=3.0&RoundedTriangleEdge_height=50.0&RoundedTriangleEdge_r_hole=2.0&RoundedTriangleEdge_radius=30.0&RoundedTriangleEdge_outset=1.0&Mounting_d_head=6.5&Mounting_d_shaft=3.0&Mounting_margin=0.125&Mounting_num=2&Mounting_side=back&Mounting_style=straight+edge%2C+within&HandleEdge_height=20.0&HandleEdge_hole_height=75.0&HandleEdge_hole_width=40%3A40&HandleEdge_on_sides=0&HandleEdge_on_sides=1&HandleEdge_radius=10.0&HandleEdge_outset=1.0&Flex_stretch=1.05&Flex_connection=1.0&Flex_distance=0.5&Flex_width=5.0&Lid_handle=none&Lid_style=none&Lid_handle_height=8.0&Lid_height=4.0&Lid_play=0.1&top_edge=e&bottom_edge=h&x=250&y=100&h=170&outside=0&outside=1&vertical_edges=finger+joints&thickness=6&format=svg&tabs=0.0&qr_code=0&debug=0&labels=0&labels=1&reference=100.0&inner_corners=loop&burn=0.1&language=fr&render=2
SettingsUrl short: http://boxes.hackerspace-bamberg.de/boxes.py/UniversalBox?x=250&h=170&thickness=6
-->
<title>UniversalBox</title>
<metadata>
<rdf:RDF><cc:Work>
<dc:title>Box - UniversalBox</dc:title>
<dc:date>2024-06-04 12:03:50</dc:date>
<dc:source>http://boxes.hackerspace-bamberg.de/boxes.py/UniversalBox?FingerJoint_angle=90.0&amp;FingerJoint_style=rectangular&amp;FingerJoint_surroundingspaces=2.0&amp;FingerJoint_bottom_lip=0.0&amp;FingerJoint_edge_width=1.0&amp;FingerJoint_extra_length=0.0&amp;FingerJoint_finger=2.0&amp;FingerJoint_play=0.0&amp;FingerJoint_space=2.0&amp;FingerJoint_width=1.0&amp;Stackable_angle=60&amp;Stackable_bottom_stabilizers=0.0&amp;Stackable_height=2.0&amp;Stackable_holedistance=1.0&amp;Stackable_width=4.0&amp;Hinge_grip_percentage=0&amp;Hinge_outset=0&amp;Hinge_outset=1&amp;Hinge_pinwidth=0.5&amp;Hinge_style=outset&amp;Hinge_axle=2.0&amp;Hinge_grip_length=0&amp;Hinge_hingestrength=1&amp;CabinetHinge_bore=3.2&amp;CabinetHinge_eyes_per_hinge=5&amp;CabinetHinge_hinges=2&amp;CabinetHinge_style=inside&amp;CabinetHinge_eye=1.5&amp;CabinetHinge_play=0.05&amp;CabinetHinge_spacing=2.0&amp;SlideOnLid_angle=90.0&amp;SlideOnLid_hole_width=0&amp;SlideOnLid_second_pin=0&amp;SlideOnLid_second_pin=1&amp;SlideOnLid_spring=both&amp;SlideOnLid_style=rectangular&amp;SlideOnLid_surroundingspaces=2.0&amp;SlideOnLid_bottom_lip=0.0&amp;SlideOnLid_edge_width=1.0&amp;SlideOnLid_extra_length=0.0&amp;SlideOnLid_finger=3.0&amp;SlideOnLid_play=0.05&amp;SlideOnLid_space=2.0&amp;SlideOnLid_width=1.0&amp;Click_angle=5.0&amp;Click_bottom_radius=0.1&amp;Click_depth=3.0&amp;RoundedTriangleEdge_height=50.0&amp;RoundedTriangleEdge_r_hole=2.0&amp;RoundedTriangleEdge_radius=30.0&amp;RoundedTriangleEdge_outset=1.0&amp;Mounting_d_head=6.5&amp;Mounting_d_shaft=3.0&amp;Mounting_margin=0.125&amp;Mounting_num=2&amp;Mounting_side=back&amp;Mounting_style=straight+edge%2C+within&amp;HandleEdge_height=20.0&amp;HandleEdge_hole_height=75.0&amp;HandleEdge_hole_width=40%3A40&amp;HandleEdge_on_sides=0&amp;HandleEdge_on_sides=1&amp;HandleEdge_radius=10.0&amp;HandleEdge_outset=1.0&amp;Flex_stretch=1.05&amp;Flex_connection=1.0&amp;Flex_distance=0.5&amp;Flex_width=5.0&amp;Lid_handle=none&amp;Lid_style=none&amp;Lid_handle_height=8.0&amp;Lid_height=4.0&amp;Lid_play=0.1&amp;top_edge=e&amp;bottom_edge=h&amp;x=250&amp;y=100&amp;h=170&amp;outside=0&amp;outside=1&amp;vertical_edges=finger+joints&amp;thickness=6&amp;format=svg&amp;tabs=0.0&amp;qr_code=0&amp;debug=0&amp;labels=0&amp;labels=1&amp;reference=100.0&amp;inner_corners=loop&amp;burn=0.1&amp;language=fr&amp;render=2</dc:source>
<dc:source>http://boxes.hackerspace-bamberg.de/boxes.py/UniversalBox?x=250&amp;h=170&amp;thickness=6</dc:source>
<dc:description>Box with various options for different styles and lids

Created with Boxes.py (https://boxes.hackerspace-bamberg.de/)
Command line: boxes UniversalBox --FingerJoint_angle=90.0 --FingerJoint_style=rectangular --FingerJoint_surroundingspaces=2.0 --FingerJoint_bottom_lip=0.0 --FingerJoint_edge_width=1.0 --FingerJoint_extra_length=0.0 --FingerJoint_finger=2.0 --FingerJoint_play=0.0 --FingerJoint_space=2.0 --FingerJoint_width=1.0 --Stackable_angle=60 --Stackable_bottom_stabilizers=0.0 --Stackable_height=2.0 --Stackable_holedistance=1.0 --Stackable_width=4.0 --Hinge_grip_percentage=0 --Hinge_outset=0 --Hinge_outset=1 --Hinge_pinwidth=0.5 --Hinge_style=outset --Hinge_axle=2.0 --Hinge_grip_length=0 --Hinge_hingestrength=1 --CabinetHinge_bore=3.2 --CabinetHinge_eyes_per_hinge=5 --CabinetHinge_hinges=2 --CabinetHinge_style=inside --CabinetHinge_eye=1.5 --CabinetHinge_play=0.05 --CabinetHinge_spacing=2.0 --SlideOnLid_angle=90.0 --SlideOnLid_hole_width=0 --SlideOnLid_second_pin=0 --SlideOnLid_second_pin=1 --SlideOnLid_spring=both --SlideOnLid_style=rectangular --SlideOnLid_surroundingspaces=2.0 --SlideOnLid_bottom_lip=0.0 --SlideOnLid_edge_width=1.0 --SlideOnLid_extra_length=0.0 --SlideOnLid_finger=3.0 --SlideOnLid_play=0.05 --SlideOnLid_space=2.0 --SlideOnLid_width=1.0 --Click_angle=5.0 --Click_bottom_radius=0.1 --Click_depth=3.0 --RoundedTriangleEdge_height=50.0 --RoundedTriangleEdge_r_hole=2.0 --RoundedTriangleEdge_radius=30.0 --RoundedTriangleEdge_outset=1.0 --Mounting_d_head=6.5 --Mounting_d_shaft=3.0 --Mounting_margin=0.125 --Mounting_num=2 --Mounting_side=back '--Mounting_style=straight edge, within' --HandleEdge_height=20.0 --HandleEdge_hole_height=75.0 --HandleEdge_hole_width=40:40 --HandleEdge_on_sides=0 --HandleEdge_on_sides=1 --HandleEdge_radius=10.0 --HandleEdge_outset=1.0 --Flex_stretch=1.05 --Flex_connection=1.0 --Flex_distance=0.5 --Flex_width=5.0 --Lid_handle=none --Lid_style=none --Lid_handle_height=8.0 --Lid_height=4.0 --Lid_play=0.1 --top_edge=e --bottom_edge=h --x=250 --y=100 --h=170 --outside=0 --outside=1 '--vertical_edges=finger joints' --thickness=6 --format=svg --tabs=0.0 --qr_code=0 --debug=0 --labels=0 --labels=1 --reference=100.0 --inner_corners=loop --burn=0.1
Command line short: boxes UniversalBox --x=250 --h=170 --thickness=6
Url: http://boxes.hackerspace-bamberg.de/boxes.py/UniversalBox?FingerJoint_angle=90.0&amp;FingerJoint_style=rectangular&amp;FingerJoint_surroundingspaces=2.0&amp;FingerJoint_bottom_lip=0.0&amp;FingerJoint_edge_width=1.0&amp;FingerJoint_extra_length=0.0&amp;FingerJoint_finger=2.0&amp;FingerJoint_play=0.0&amp;FingerJoint_space=2.0&amp;FingerJoint_width=1.0&amp;Stackable_angle=60&amp;Stackable_bottom_stabilizers=0.0&amp;Stackable_height=2.0&amp;Stackable_holedistance=1.0&amp;Stackable_width=4.0&amp;Hinge_grip_percentage=0&amp;Hinge_outset=0&amp;Hinge_outset=1&amp;Hinge_pinwidth=0.5&amp;Hinge_style=outset&amp;Hinge_axle=2.0&amp;Hinge_grip_length=0&amp;Hinge_hingestrength=1&amp;CabinetHinge_bore=3.2&amp;CabinetHinge_eyes_per_hinge=5&amp;CabinetHinge_hinges=2&amp;CabinetHinge_style=inside&amp;CabinetHinge_eye=1.5&amp;CabinetHinge_play=0.05&amp;CabinetHinge_spacing=2.0&amp;SlideOnLid_angle=90.0&amp;SlideOnLid_hole_width=0&amp;SlideOnLid_second_pin=0&amp;SlideOnLid_second_pin=1&amp;SlideOnLid_spring=both&amp;SlideOnLid_style=rectangular&amp;SlideOnLid_surroundingspaces=2.0&amp;SlideOnLid_bottom_lip=0.0&amp;SlideOnLid_edge_width=1.0&amp;SlideOnLid_extra_length=0.0&amp;SlideOnLid_finger=3.0&amp;SlideOnLid_play=0.05&amp;SlideOnLid_space=2.0&amp;SlideOnLid_width=1.0&amp;Click_angle=5.0&amp;Click_bottom_radius=0.1&amp;Click_depth=3.0&amp;RoundedTriangleEdge_height=50.0&amp;RoundedTriangleEdge_r_hole=2.0&amp;RoundedTriangleEdge_radius=30.0&amp;RoundedTriangleEdge_outset=1.0&amp;Mounting_d_head=6.5&amp;Mounting_d_shaft=3.0&amp;Mounting_margin=0.125&amp;Mounting_num=2&amp;Mounting_side=back&amp;Mounting_style=straight+edge%2C+within&amp;HandleEdge_height=20.0&amp;HandleEdge_hole_height=75.0&amp;HandleEdge_hole_width=40%3A40&amp;HandleEdge_on_sides=0&amp;HandleEdge_on_sides=1&amp;HandleEdge_radius=10.0&amp;HandleEdge_outset=1.0&amp;Flex_stretch=1.05&amp;Flex_connection=1.0&amp;Flex_distance=0.5&amp;Flex_width=5.0&amp;Lid_handle=none&amp;Lid_style=none&amp;Lid_handle_height=8.0&amp;Lid_height=4.0&amp;Lid_play=0.1&amp;top_edge=e&amp;bottom_edge=h&amp;x=250&amp;y=100&amp;h=170&amp;outside=0&amp;outside=1&amp;vertical_edges=finger+joints&amp;thickness=6&amp;format=svg&amp;tabs=0.0&amp;qr_code=0&amp;debug=0&amp;labels=0&amp;labels=1&amp;reference=100.0&amp;inner_corners=loop&amp;burn=0.1&amp;language=fr&amp;render=2
Url short: http://boxes.hackerspace-bamberg.de/boxes.py/UniversalBox?x=250&amp;h=170&amp;thickness=6
SettingsUrl: http://boxes.hackerspace-bamberg.de/boxes.py/UniversalBox?FingerJoint_angle=90.0&amp;FingerJoint_style=rectangular&amp;FingerJoint_surroundingspaces=2.0&amp;FingerJoint_bottom_lip=0.0&amp;FingerJoint_edge_width=1.0&amp;FingerJoint_extra_length=0.0&amp;FingerJoint_finger=2.0&amp;FingerJoint_play=0.0&amp;FingerJoint_space=2.0&amp;FingerJoint_width=1.0&amp;Stackable_angle=60&amp;Stackable_bottom_stabilizers=0.0&amp;Stackable_height=2.0&amp;Stackable_holedistance=1.0&amp;Stackable_width=4.0&amp;Hinge_grip_percentage=0&amp;Hinge_outset=0&amp;Hinge_outset=1&amp;Hinge_pinwidth=0.5&amp;Hinge_style=outset&amp;Hinge_axle=2.0&amp;Hinge_grip_length=0&amp;Hinge_hingestrength=1&amp;CabinetHinge_bore=3.2&amp;CabinetHinge_eyes_per_hinge=5&amp;CabinetHinge_hinges=2&amp;CabinetHinge_style=inside&amp;CabinetHinge_eye=1.5&amp;CabinetHinge_play=0.05&amp;CabinetHinge_spacing=2.0&amp;SlideOnLid_angle=90.0&amp;SlideOnLid_hole_width=0&amp;SlideOnLid_second_pin=0&amp;SlideOnLid_second_pin=1&amp;SlideOnLid_spring=both&amp;SlideOnLid_style=rectangular&amp;SlideOnLid_surroundingspaces=2.0&amp;SlideOnLid_bottom_lip=0.0&amp;SlideOnLid_edge_width=1.0&amp;SlideOnLid_extra_length=0.0&amp;SlideOnLid_finger=3.0&amp;SlideOnLid_play=0.05&amp;SlideOnLid_space=2.0&amp;SlideOnLid_width=1.0&amp;Click_angle=5.0&amp;Click_bottom_radius=0.1&amp;Click_depth=3.0&amp;RoundedTriangleEdge_height=50.0&amp;RoundedTriangleEdge_r_hole=2.0&amp;RoundedTriangleEdge_radius=30.0&amp;RoundedTriangleEdge_outset=1.0&amp;Mounting_d_head=6.5&amp;Mounting_d_shaft=3.0&amp;Mounting_margin=0.125&amp;Mounting_num=2&amp;Mounting_side=back&amp;Mounting_style=straight+edge%2C+within&amp;HandleEdge_height=20.0&amp;HandleEdge_hole_height=75.0&amp;HandleEdge_hole_width=40%3A40&amp;HandleEdge_on_sides=0&amp;HandleEdge_on_sides=1&amp;HandleEdge_radius=10.0&amp;HandleEdge_outset=1.0&amp;Flex_stretch=1.05&amp;Flex_connection=1.0&amp;Flex_distance=0.5&amp;Flex_width=5.0&amp;Lid_handle=none&amp;Lid_style=none&amp;Lid_handle_height=8.0&amp;Lid_height=4.0&amp;Lid_play=0.1&amp;top_edge=e&amp;bottom_edge=h&amp;x=250&amp;y=100&amp;h=170&amp;outside=0&amp;outside=1&amp;vertical_edges=finger+joints&amp;thickness=6&amp;format=svg&amp;tabs=0.0&amp;qr_code=0&amp;debug=0&amp;labels=0&amp;labels=1&amp;reference=100.0&amp;inner_corners=loop&amp;burn=0.1&amp;language=fr&amp;render=2
SettingsUrl short: http://boxes.hackerspace-bamberg.de/boxes.py/UniversalBox?x=250&amp;h=170&amp;thickness=6
</dc:description>
</cc:Work></rdf:RDF></metadata>
<g id="p-0" style="fill:none;stroke-linecap:round;stroke-linejoin:round;">
  <path d="M 10.100 469.800 H 110.100 V 459.800 H 10.100 V 469.800 Z" stroke="rgb(0,0,0)" stroke-width="0.20" />
  <text dominant-baseline="hanging" font-size="6px" style="font-family: sans-serif ; font-weight: normal; font-style: normal; fill: rgb(255,0,0)" text-anchor="middle" transform="matrix( 1.000 0.000 0.000 1.000 60.100 461.800 )">100.0mm, burn:0.10mm</text>
</g>
<g id="p-1" style="fill:none;stroke-linecap:round;stroke-linejoin:round;">
  <path d="M 39.100 450.400 H 33.200 C 33.100 450.400 33.200 450.500 33.200 450.400 V 444.600 C 33.200 444.500 33.100 444.600 33.200 444.600 H 45.000 C 45.100 444.600 45.000 444.500 45.000 444.600 V 450.400 C 45.000 450.500 45.100 450.400 45.000 450.400 H 39.100 Z" stroke="rgb(0,0,255)" stroke-width="0.20" />
  <path d="M 63.100 450.400 H 57.200 C 57.100 450.400 57.200 450.500 57.200 450.400 V 444.600 C 57.200 444.500 57.100 444.600 57.200 444.600 H 69.000 C 69.100 444.600 69.000 444.500 69.000 444.600 V 450.400 C 69.000 450.500 69.100 450.400 69.000 450.400 H 63.100 Z" stroke="rgb(0,0,255)" stroke-width="0.20" />
  <path d="M 87.100 450.400 H 81.200 C 81.100 450.400 81.200 450.500 81.200 450.400 V 444.600 C 81.200 444.500 81.100 444.600 81.200 444.600 H 93.000 C 93.100 444.600 93.000 444.500 93.000 444.600 V 450.400 C 93.000 450.500 93.100 450.400 93.000 450.400 H 87.100 Z" stroke="rgb(0,0,255)" stroke-width="0.20" />
  <path d="M 111.100 450.400 H 105.200 C 105.100 450.400 105.200 450.500 105.200 450.400 V 444.600 C 105.200 444.500 105.100 444.600 105.200 444.600 H 117.000 C 117.100 444.600 117.000 444.500 117.000 444.600 V 450.400 C 117.000 450.500 117.100 450.400 117.000 450.400 H 111.100 Z" stroke="rgb(0,0,255)" stroke-width="0.20" />
  <path d="M 135.100 450.400 H 129.200 C 129.100 450.400 129.200 450.500 129.200 450.400 V 444.600 C 129.200 444.500 129.100 444.600 129.200 444.600 H 141.000 C 141.100 444.600 141.000 444.500 141.000 444.600 V 450.400 C 141.000 450.500 141.100 450.400 141.000 450.400 H 135.100 Z" stroke="rgb(0,0,255)" stroke-width="0.20" />
  <path d="M 159.100 450.400 H 153.200 C 153.100 450.400 153.200 450.500 153.200 450.400 V 444.600 C 153.200 444.500 153.100 444.600 153.200 444.600 H 165.000 C 165.100 444.600 165.000 444.500 165.000 444.600 V 450.400 C 165.000 450.500 165.100 450.400 165.000 450.400 H 159.100 Z" stroke="rgb(0,0,255)" stroke-width="0.20" />
  <path d="M 183.100 450.400 H 177.200 C 177.100 450.400 177.200 450.500 177.200 450.400 V 444.600 C 177.200 444.500 177.100 444.600 177.200 444.600 H 189.000 C 189.100 444.600 189.000 444.500 189.000 444.600 V 450.400 C 189.000 450.500 189.100 450.400 189.000 450.400 H 183.100 Z" stroke="rgb(0,0,255)" stroke-width="0.20" />
  <path d="M 207.100 450.400 H 201.200 C 201.100 450.400 201.200 450.500 201.200 450.400 V 444.600 C 201.200 444.500 201.100 444.600 201.200 444.600 H 213.000 C 213.100 444.600 213.000 444.500 213.000 444.600 V 450.400 C 213.000 450.500 213.100 450.400 213.000 450.400 H 207.100 Z" stroke="rgb(0,0,255)" stroke-width="0.20" />
  <path d="M 231.100 450.400 H 225.200 C 225.100 450.400 225.200 450.500 225.200 450.400 V 444.600 C 225.200 444.500 225.100 444.600 225.200 444.600 H 237.000 C 237.100 444.600 237.000 444.500 237.000 444.600 V 450.400 C 237.000 450.500 237.100 450.400 237.000 450.400 H 231.100 Z" stroke="rgb(0,0,255)" stroke-width="0.20" />
  <text dominant-baseline="hanging" font-size="4px" style="font-family: sans-serif ; font-weight: normal; font-style: normal; fill: rgb(255,0,0)" text-anchor="middle" transform="matrix( 1.000 0.000 0.000 1.000 135.100 369.600 )">front</text><path d="M 16.100 456.600 H 254.100 H 260.100 C 260.155 456.600 260.200 456.555 260.200 456.500 V 437.500 C 260.200 437.445 260.155 437.400 260.100 437.400 H 254.200 C 254.100 437.400 254.200 437.500 254.200 437.400 V 425.600 C 254.200 425.500 254.100 425.600 254.200 425.600 H 260.100 C 260.155 425.600 260.200 425.555 260.200 425.500 V 413.500 C 260.200 413.445 260.155 413.400 260.100 413.400 H 254.200 C 254.100 413.400 254.200 413.500 254.200 413.400 V 401.600 C 254.200 401.500 254.100 401.600 254.200 401.600 H 260.100 C 260.155 401.600 260.200 401.555 260.200 401.500 V 389.500 C 260.200 389.445 260.155 389.400 260.100 389.400 H 254.200 C 254.100 389.400 254.200 389.500 254.200 389.400 V 377.600 C 254.200 377.500 254.100 377.600 254.200 377.600 H 260.100 C 260.155 377.600 260.200 377.555 260.200 377.500 V 365.500 C 260.200 365.445 260.155 365.400 260.100 365.400 H 254.200 C 254.100 365.400 254.200 365.500 254.200 365.400 V 353.600 C 254.200 353.500 254.100 353.600 254.200 353.600 H 260.100 C 260.155 353.600 260.200 353.555 260.200 353.500 V 341.500 C 260.200 341.445 260.155 341.400 260.100 341.400 H 254.200 C 254.100 341.400 254.200 341.500 254.200 341.400 V 329.600 C 254.200 329.500 254.100 329.600 254.200 329.600 H 260.100 C 260.155 329.600 260.200 329.555 260.200 329.500 V 317.500 C 260.200 317.445 260.155 317.400 260.100 317.400 H 254.200 C 254.100 317.400 254.200 317.500 254.200 317.400 V 305.600 C 254.200 305.500 254.100 305.600 254.200 305.600 H 260.100 C 260.155 305.600 260.200 305.555 260.200 305.500 V 286.500 C 260.200 286.445 260.155 286.400 260.100 286.400 H 254.100 H 16.100 H 10.100 C 10.045 286.400 10.000 286.445 10.000 286.500 V 305.500 C 10.000 305.555 10.045 305.600 10.100 305.600 H 16.000 C 16.100 305.600 16.000 305.500 16.000 305.600 V 317.400 C 16.000 317.500 16.100 317.400 16.000 317.400 H 10.100 C 10.045 317.400 10.000 317.445 10.000 317.500 V 329.500 C 10.000 329.555 10.045 329.600 10.100 329.600 H 16.000 C 16.100 329.600 16.000 329.500 16.000 329.600 V 341.400 C 16.000 341.500 16.100 341.400 16.000 341.400 H 10.100 C 10.045 341.400 10.000 341.445 10.000 341.500 V 353.500 C 10.000 353.555 10.045 353.600 10.100 353.600 H 16.000 C 16.100 353.600 16.000 353.500 16.000 353.600 V 365.400 C 16.000 365.500 16.100 365.400 16.000 365.400 H 10.100 C 10.045 365.400 10.000 365.445 10.000 365.500 V 377.500 C 10.000 377.555 10.045 377.600 10.100 377.600 H 16.000 C 16.100 377.600 16.000 377.500 16.000 377.600 V 389.400 C 16.000 389.500 16.100 389.400 16.000 389.400 H 10.100 C 10.045 389.400 10.000 389.445 10.000 389.500 V 401.500 C 10.000 401.555 10.045 401.600 10.100 401.600 H 16.000 C 16.100 401.600 16.000 401.500 16.000 401.600 V 413.400 C 16.000 413.500 16.100 413.400 16.000 413.400 H 10.100 C 10.045 413.400 10.000 413.445 10.000 413.500 V 425.500 C 10.000 425.555 10.045 425.600 10.100 425.600 H 16.000 C 16.100 425.600 16.000 425.500 16.000 425.600 V 437.400 C 16.000 437.500 16.100 437.400 16.000 437.400 H 10.100 C 10.045 437.400 10.000 437.445 10.000 437.500 V 456.500 C 10.000 456.555 10.045 456.600 10.100 456.600 H 16.100" stroke="rgb(0,0,0)" stroke-width="0.20" />
</g>
<g id="p-2" style="fill:none;stroke-linecap:round;stroke-linejoin:round;">
  <path d="M 39.100 277.200 H 33.200 C 33.100 277.200 33.200 277.300 33.200 277.200 V 271.400 C 33.200 271.300 33.100 271.400 33.200 271.400 H 45.000 C 45.100 271.400 45.000 271.300 45.000 271.400 V 277.200 C 45.000 277.300 45.100 277.200 45.000 277.200 H 39.100 Z" stroke="rgb(0,0,255)" stroke-width="0.20" />
  <path d="M 63.100 277.200 H 57.200 C 57.100 277.200 57.200 277.300 57.200 277.200 V 271.400 C 57.200 271.300 57.100 271.400 57.200 271.400 H 69.000 C 69.100 271.400 69.000 271.300 69.000 271.400 V 277.200 C 69.000 277.300 69.100 277.200 69.000 277.200 H 63.100 Z" stroke="rgb(0,0,255)" stroke-width="0.20" />
  <path d="M 87.100 277.200 H 81.200 C 81.100 277.200 81.200 277.300 81.200 277.200 V 271.400 C 81.200 271.300 81.100 271.400 81.200 271.400 H 93.000 C 93.100 271.400 93.000 271.300 93.000 271.400 V 277.200 C 93.000 277.300 93.100 277.200 93.000 277.200 H 87.100 Z" stroke="rgb(0,0,255)" stroke-width="0.20" />
  <path d="M 111.100 277.200 H 105.200 C 105.100 277.200 105.200 277.300 105.200 277.200 V 271.400 C 105.200 271.300 105.100 271.400 105.200 271.400 H 117.000 C 117.100 271.400 117.000 271.300 117.000 271.400 V 277.200 C 117.000 277.300 117.100 277.200 117.000 277.200 H 111.100 Z" stroke="rgb(0,0,255)" stroke-width="0.20" />
  <path d="M 135.100 277.200 H 129.200 C 129.100 277.200 129.200 277.300 129.200 277.200 V 271.400 C 129.200 271.300 129.100 271.400 129.200 271.400 H 141.000 C 141.100 271.400 141.000 271.300 141.000 271.400 V 277.200 C 141.000 277.300 141.100 277.200 141.000 277.200 H 135.100 Z" stroke="rgb(0,0,255)" stroke-width="0.20" />
  <path d="M 159.100 277.200 H 153.200 C 153.100 277.200 153.200 277.300 153.200 277.200 V 271.400 C 153.200 271.300 153.100 271.400 153.200 271.400 H 165.000 C 165.100 271.400 165.000 271.300 165.000 271.400 V 277.200 C 165.000 277.300 165.100 277.200 165.000 277.200 H 159.100 Z" stroke="rgb(0,0,255)" stroke-width="0.20" />
  <path d="M 183.100 277.200 H 177.200 C 177.100 277.200 177.200 277.300 177.200 277.200 V 271.400 C 177.200 271.300 177.100 271.400 177.200 271.400 H 189.000 C 189.100 271.400 189.000 271.300 189.000 271.400 V 277.200 C 189.000 277.300 189.100 277.200 189.000 277.200 H 183.100 Z" stroke="rgb(0,0,255)" stroke-width="0.20" />
  <path d="M 207.100 277.200 H 201.200 C 201.100 277.200 201.200 277.300 201.200 277.200 V 271.400 C 201.200 271.300 201.100 271.400 201.200 271.400 H 213.000 C 213.100 271.400 213.000 271.300 213.000 271.400 V 277.200 C 213.000 277.300 213.100 277.200 213.000 277.200 H 207.100 Z" stroke="rgb(0,0,255)" stroke-width="0.20" />
  <path d="M 231.100 277.200 H 225.200 C 225.100 277.200 225.200 277.300 225.200 277.200 V 271.400 C 225.200 271.300 225.100 271.400 225.200 271.400 H 237.000 C 237.100 271.400 237.000 271.300 237.000 271.400 V 277.200 C 237.000 277.300 237.100 277.200 237.000 277.200 H 231.100 Z" stroke="rgb(0,0,255)" stroke-width="0.20" />
  <text dominant-baseline="hanging" font-size="4px" style="font-family: sans-serif ; font-weight: normal; font-style: normal; fill: rgb(255,0,0)" text-anchor="middle" transform="matrix( 1.000 0.000 0.000 1.000 135.100 196.400 )">back</text><path d="M 16.100 283.400 H 254.100 H 260.100 C 260.155 283.400 260.200 283.355 260.200 283.300 V 264.300 C 260.200 264.245 260.155 264.200 260.100 264.200 H 254.200 C 254.100 264.200 254.200 264.300 254.200 264.200 V 252.400 C 254.200 252.300 254.100 252.400 254.200 252.400 H 260.100 C 260.155 252.400 260.200 252.355 260.200 252.300 V 240.300 C 260.200 240.245 260.155 240.200 260.100 240.200 H 254.200 C 254.100 240.200 254.200 240.300 254.200 240.200 V 228.400 C 254.200 228.300 254.100 228.400 254.200 228.400 H 260.100 C 260.155 228.400 260.200 228.355 260.200 228.300 V 216.300 C 260.200 216.245 260.155 216.200 260.100 216.200 H 254.200 C 254.100 216.200 254.200 216.300 254.200 216.200 V 204.400 C 254.200 204.300 254.100 204.400 254.200 204.400 H 260.100 C 260.155 204.400 260.200 204.355 260.200 204.300 V 192.300 C 260.200 192.245 260.155 192.200 260.100 192.200 H 254.200 C 254.100 192.200 254.200 192.300 254.200 192.200 V 180.400 C 254.200 180.300 254.100 180.400 254.200 180.400 H 260.100 C 260.155 180.400 260.200 180.355 260.200 180.300 V 168.300 C 260.200 168.245 260.155 168.200 260.100 168.200 H 254.200 C 254.100 168.200 254.200 168.300 254.200 168.200 V 156.400 C 254.200 156.300 254.100 156.400 254.200 156.400 H 260.100 C 260.155 156.400 260.200 156.355 260.200 156.300 V 144.300 C 260.200 144.245 260.155 144.200 260.100 144.200 H 254.200 C 254.100 144.200 254.200 144.300 254.200 144.200 V 132.400 C 254.200 132.300 254.100 132.400 254.200 132.400 H 260.100 C 260.155 132.400 260.200 132.355 260.200 132.300 V 113.300 C 260.200 113.245 260.155 113.200 260.100 113.200 H 254.100 H 16.100 H 10.100 C 10.045 113.200 10.000 113.245 10.000 113.300 V 132.300 C 10.000 132.355 10.045 132.400 10.100 132.400 H 16.000 C 16.100 132.400 16.000 132.300 16.000 132.400 V 144.200 C 16.000 144.300 16.100 144.200 16.000 144.200 H 10.100 C 10.045 144.200 10.000 144.245 10.000 144.300 V 156.300 C 10.000 156.355 10.045 156.400 10.100 156.400 H 16.000 C 16.100 156.400 16.000 156.300 16.000 156.400 V 168.200 C 16.000 168.300 16.100 168.200 16.000 168.200 H 10.100 C 10.045 168.200 10.000 168.245 10.000 168.300 V 180.300 C 10.000 180.355 10.045 180.400 10.100 180.400 H 16.000 C 16.100 180.400 16.000 180.300 16.000 180.400 V 192.200 C 16.000 192.300 16.100 192.200 16.000 192.200 H 10.100 C 10.045 192.200 10.000 192.245 10.000 192.300 V 204.300 C 10.000 204.355 10.045 204.400 10.100 204.400 H 16.000 C 16.100 204.400 16.000 204.300 16.000 204.400 V 216.200 C 16.000 216.300 16.100 216.200 16.000 216.200 H 10.100 C 10.045 216.200 10.000 216.245 10.000 216.300 V 228.300 C 10.000 228.355 10.045 228.400 10.100 228.400 H 16.000 C 16.100 228.400 16.000 228.300 16.000 228.400 V 240.200 C 16.000 240.300 16.100 240.200 16.000 240.200 H 10.100 C 10.045 240.200 10.000 240.245 10.000 240.300 V 252.300 C 10.000 252.355 10.045 252.400 10.100 252.400 H 16.000 C 16.100 252.400 16.000 252.300 16.000 252.400 V 264.200 C 16.000 264.300 16.100 264.200 16.000 264.200 H 10.100 C 10.045 264.200 10.000 264.245 10.000 264.300 V 283.300 C 10.000 283.355 10.045 283.400 10.100 283.400 H 16.100" stroke="rgb(0,0,0)" stroke-width="0.20" />
</g>
<g id="p-3" style="fill:none;stroke-linecap:round;stroke-linejoin:round;">
  <text dominant-baseline="hanging" font-size="4px" style="font-family: sans-serif ; font-weight: normal; font-style: normal; fill: rgb(255,0,0)" text-anchor="middle" transform="matrix( 1.000 0.000 0.000 1.000 135.100 58.200 )">bottom</text><path d="M 16.100 104.200 H 33.000 C 33.100 104.200 33.000 104.100 33.000 104.200 V 110.100 C 33.000 110.155 33.045 110.200 33.100 110.200 H 45.100 C 45.155 110.200 45.200 110.155 45.200 110.100 V 104.200 C 45.200 104.100 45.100 104.200 45.200 104.200 H 57.000 C 57.100 104.200 57.000 104.100 57.000 104.200 V 110.100 C 57.000 110.155 57.045 110.200 57.100 110.200 H 69.100 C 69.155 110.200 69.200 110.155 69.200 110.100 V 104.200 C 69.200 104.100 69.100 104.200 69.200 104.200 H 81.000 C 81.100 104.200 81.000 104.100 81.000 104.200 V 110.100 C 81.000 110.155 81.045 110.200 81.100 110.200 H 93.100 C 93.155 110.200 93.200 110.155 93.200 110.100 V 104.200 C 93.200 104.100 93.100 104.200 93.200 104.200 H 105.000 C 105.100 104.200 105.000 104.100 105.000 104.200 V 110.100 C 105.000 110.155 105.045 110.200 105.100 110.200 H 117.100 C 117.155 110.200 117.200 110.155 117.200 110.100 V 104.200 C 117.200 104.100 117.100 104.200 117.200 104.200 H 129.000 C 129.100 104.200 129.000 104.100 129.000 104.200 V 110.100 C 129.000 110.155 129.045 110.200 129.100 110.200 H 141.100 C 141.155 110.200 141.200 110.155 141.200 110.100 V 104.200 C 141.200 104.100 141.100 104.200 141.200 104.200 H 153.000 C 153.100 104.200 153.000 104.100 153.000 104.200 V 110.100 C 153.000 110.155 153.045 110.200 153.100 110.200 H 165.100 C 165.155 110.200 165.200 110.155 165.200 110.100 V 104.200 C 165.200 104.100 165.100 104.200 165.200 104.200 H 177.000 C 177.100 104.200 177.000 104.100 177.000 104.200 V 110.100 C 177.000 110.155 177.045 110.200 177.100 110.200 H 189.100 C 189.155 110.200 189.200 110.155 189.200 110.100 V 104.200 C 189.200 104.100 189.100 104.200 189.200 104.200 H 201.000 C 201.100 104.200 201.000 104.100 201.000 104.200 V 110.100 C 201.000 110.155 201.045 110.200 201.100 110.200 H 213.100 C 213.155 110.200 213.200 110.155 213.200 110.100 V 104.200 C 213.200 104.100 213.100 104.200 213.200 104.200 H 225.000 C 225.100 104.200 225.000 104.100 225.000 104.200 V 110.100 C 225.000 110.155 225.045 110.200 225.100 110.200 H 237.100 C 237.155 110.200 237.200 110.155 237.200 110.100 V 104.200 C 237.200 104.100 237.100 104.200 237.200 104.200 H 254.100 C 254.155 104.200 254.200 104.155 254.200 104.100 V 90.200 C 254.200 90.100 254.100 90.200 254.200 90.200 H 260.100 C 260.155 90.200 260.200 90.155 260.200 90.100 V 78.100 C 260.200 78.045 260.155 78.000 260.100 78.000 H 254.200 C 254.100 78.000 254.200 78.100 254.200 78.000 V 66.200 C 254.200 66.100 254.100 66.200 254.200 66.200 H 260.100 C 260.155 66.200 260.200 66.155 260.200 66.100 V 54.100 C 260.200 54.045 260.155 54.000 260.100 54.000 H 254.200 C 254.100 54.000 254.200 54.100 254.200 54.000 V 42.200 C 254.200 42.100 254.100 42.200 254.200 42.200 H 260.100 C 260.155 42.200 260.200 42.155 260.200 42.100 V 30.100 C 260.200 30.045 260.155 30.000 260.100 30.000 H 254.200 C 254.100 30.000 254.200 30.100 254.200 30.000 V 16.100 C 254.200 16.045 254.155 16.000 254.100 16.000 H 237.200 C 237.100 16.000 237.200 16.100 237.200 16.000 V 10.100 C 237.200 10.045 237.155 10.000 237.100 10.000 H 225.100 C 225.045 10.000 225.000 10.045 225.000 10.100 V 16.000 C 225.000 16.100 225.100 16.000 225.000 16.000 H 213.200 C 213.100 16.000 213.200 16.100 213.200 16.000 V 10.100 C 213.200 10.045 213.155 10.000 213.100 10.000 H 201.100 C 201.045 10.000 201.000 10.045 201.000 10.100 V 16.000 C 201.000 16.100 201.100 16.000 201.000 16.000 H 189.200 C 189.100 16.000 189.200 16.100 189.200 16.000 V 10.100 C 189.200 10.045 189.155 10.000 189.100 10.000 H 177.100 C 177.045 10.000 177.000 10.045 177.000 10.100 V 16.000 C 177.000 16.100 177.100 16.000 177.000 16.000 H 165.200 C 165.100 16.000 165.200 16.100 165.200 16.000 V 10.100 C 165.200 10.045 165.155 10.000 165.100 10.000 H 153.100 C 153.045 10.000 153.000 10.045 153.000 10.100 V 16.000 C 153.000 16.100 153.100 16.000 153.000 16.000 H 141.200 C 141.100 16.000 141.200 16.100 141.200 16.000 V 10.100 C 141.200 10.045 141.155 10.000 141.100 10.000 H 129.100 C 129.045 10.000 129.000 10.045 129.000 10.100 V 16.000 C 129.000 16.100 129.100 16.000 129.000 16.000 H 117.200 C 117.100 16.000 117.200 16.100 117.200 16.000 V 10.100 C 117.200 10.045 117.155 10.000 117.100 10.000 H 105.100 C 105.045 10.000 105.000 10.045 105.000 10.100 V 16.000 C 105.000 16.100 105.100 16.000 105.000 16.000 H 93.200 C 93.100 16.000 93.200 16.100 93.200 16.000 V 10.100 C 93.200 10.045 93.155 10.000 93.100 10.000 H 81.100 C 81.045 10.000 81.000 10.045 81.000 10.100 V 16.000 C 81.000 16.100 81.100 16.000 81.000 16.000 H 69.200 C 69.100 16.000 69.200 16.100 69.200 16.000 V 10.100 C 69.200 10.045 69.155 10.000 69.100 10.000 H 57.100 C 57.045 10.000 57.000 10.045 57.000 10.100 V 16.000 C 57.000 16.100 57.100 16.000 57.000 16.000 H 45.200 C 45.100 16.000 45.200 16.100 45.200 16.000 V 10.100 C 45.200 10.045 45.155 10.000 45.100 10.000 H 33.100 C 33.045 10.000 33.000 10.045 33.000 10.100 V 16.000 C 33.000 16.100 33.100 16.000 33.000 16.000 H 16.100 C 16.045 16.000 16.000 16.045 16.000 16.100 V 30.000 C 16.000 30.100 16.100 30.000 16.000 30.000 H 10.100 C 10.045 30.000 10.000 30.045 10.000 30.100 V 42.100 C 10.000 42.155 10.045 42.200 10.100 42.200 H 16.000 C 16.100 42.200 16.000 42.100 16.000 42.200 V 54.000 C 16.000 54.100 16.100 54.000 16.000 54.000 H 10.100 C 10.045 54.000 10.000 54.045 10.000 54.100 V 66.100 C 10.000 66.155 10.045 66.200 10.100 66.200 H 16.000 C 16.100 66.200 16.000 66.100 16.000 66.200 V 78.000 C 16.000 78.100 16.100 78.000 16.000 78.000 H 10.100 C 10.045 78.000 10.000 78.045 10.000 78.100 V 90.100 C 10.000 90.155 10.045 90.200 10.100 90.200 H 16.000 C 16.100 90.200 16.000 90.100 16.000 90.200 V 104.100 C 16.000 104.155 16.045 104.200 16.100 104.200" stroke="rgb(0,0,0)" stroke-width="0.20" />
</g>
<g id="p-4" style="fill:none;stroke-linecap:round;stroke-linejoin:round;">
  <path d="M 289.300 450.400 H 283.400 C 283.300 450.400 283.400 450.500 283.400 450.400 V 444.600 C 283.400 444.500 283.300 444.600 283.400 444.600 H 295.200 C 295.300 444.600 295.200 444.500 295.200 444.600 V 450.400 C 295.200 450.500 295.300 450.400 295.200 450.400 H 289.300 Z" stroke="rgb(0,0,255)" stroke-width="0.20" />
  <path d="M 313.300 450.400 H 307.400 C 307.300 450.400 307.400 450.500 307.400 450.400 V 444.600 C 307.400 444.500 307.300 444.600 307.400 444.600 H 319.200 C 319.300 444.600 319.200 444.500 319.200 444.600 V 450.400 C 319.200 450.500 319.300 450.400 319.200 450.400 H 313.300 Z" stroke="rgb(0,0,255)" stroke-width="0.20" />
  <path d="M 337.300 450.400 H 331.400 C 331.300 450.400 331.400 450.500 331.400 450.400 V 444.600 C 331.400 444.500 331.300 444.600 331.400 444.600 H 343.200 C 343.300 444.600 343.200 444.500 343.200 444.600 V 450.400 C 343.200 450.500 343.300 450.400 343.200 450.400 H 337.300 Z" stroke="rgb(0,0,255)" stroke-width="0.20" />
  <text dominant-baseline="hanging" font-size="4px" style="font-family: sans-serif ; font-weight: normal; font-style: normal; fill: rgb(255,0,0)" text-anchor="middle" transform="matrix( 1.000 0.000 0.000 1.000 313.300 369.600 )">left</text><path d="M 269.300 456.600 H 357.300 C 357.355 456.600 357.400 456.555 357.400 456.500 V 437.600 C 357.400 437.500 357.300 437.600 357.400 437.600 H 363.300 C 363.355 437.600 363.400 437.555 363.400 437.500 V 425.500 C 363.400 425.445 363.355 425.400 363.300 425.400 H 357.400 C 357.300 425.400 357.400 425.500 357.400 425.400 V 413.600 C 357.400 413.500 357.300 413.600 357.400 413.600 H 363.300 C 363.355 413.600 363.400 413.555 363.400 413.500 V 401.500 C 363.400 401.445 363.355 401.400 363.300 401.400 H 357.400 C 357.300 401.400 357.400 401.500 357.400 401.400 V 389.600 C 357.400 389.500 357.300 389.600 357.400 389.600 H 363.300 C 363.355 389.600 363.400 389.555 363.400 389.500 V 377.500 C 363.400 377.445 363.355 377.400 363.300 377.400 H 357.400 C 357.300 377.400 357.400 377.500 357.400 377.400 V 365.600 C 357.400 365.500 357.300 365.600 357.400 365.600 H 363.300 C 363.355 365.600 363.400 365.555 363.400 365.500 V 353.500 C 363.400 353.445 363.355 353.400 363.300 353.400 H 357.400 C 357.300 353.400 357.400 353.500 357.400 353.400 V 341.600 C 357.400 341.500 357.300 341.600 357.400 341.600 H 363.300 C 363.355 341.600 363.400 341.555 363.400 341.500 V 329.500 C 363.400 329.445 363.355 329.400 363.300 329.400 H 357.400 C 357.300 329.400 357.400 329.500 357.400 329.400 V 317.600 C 357.400 317.500 357.300 317.600 357.400 317.600 H 363.300 C 363.355 317.600 363.400 317.555 363.400 317.500 V 305.500 C 363.400 305.445 363.355 305.400 363.300 305.400 H 357.400 C 357.300 305.400 357.400 305.500 357.400 305.400 V 286.500 C 357.400 286.445 357.355 286.400 357.300 286.400 H 269.300 C 269.245 286.400 269.200 286.445 269.200 286.500 V 305.400 C 269.200 305.500 269.300 305.400 269.200 305.400 H 263.300 C 263.245 305.400 263.200 305.445 263.200 305.500 V 317.500 C 263.200 317.555 263.245 317.600 263.300 317.600 H 269.200 C 269.300 317.600 269.200 317.500 269.200 317.600 V 329.400 C 269.200 329.500 269.300 329.400 269.200 329.400 H 263.300 C 263.245 329.400 263.200 329.445 263.200 329.500 V 341.500 C 263.200 341.555 263.245 341.600 263.300 341.600 H 269.200 C 269.300 341.600 269.200 341.500 269.200 341.600 V 353.400 C 269.200 353.500 269.300 353.400 269.200 353.400 H 263.300 C 263.245 353.400 263.200 353.445 263.200 353.500 V 365.500 C 263.200 365.555 263.245 365.600 263.300 365.600 H 269.200 C 269.300 365.600 269.200 365.500 269.200 365.600 V 377.400 C 269.200 377.500 269.300 377.400 269.200 377.400 H 263.300 C 263.245 377.400 263.200 377.445 263.200 377.500 V 389.500 C 263.200 389.555 263.245 389.600 263.300 389.600 H 269.200 C 269.300 389.600 269.200 389.500 269.200 389.600 V 401.400 C 269.200 401.500 269.300 401.400 269.200 401.400 H 263.300 C 263.245 401.400 263.200 401.445 263.200 401.500 V 413.500 C 263.200 413.555 263.245 413.600 263.300 413.600 H 269.200 C 269.300 413.600 269.200 413.500 269.200 413.600 V 425.400 C 269.200 425.500 269.300 425.400 269.200 425.400 H 263.300 C 263.245 425.400 263.200 425.445 263.200 425.500 V 437.500 C 263.200 437.555 263.245 437.600 263.300 437.600 H 269.200 C 269.300 437.600 269.200 437.500 269.200 437.600 V 456.500 C 269.200 456.555 269.245 456.600 269.300 456.600" stroke="rgb(0,0,0)" stroke-width="0.20" />
</g>
<g id="p-5" style="fill:none;stroke-linecap:round;stroke-linejoin:round;">
  <path d="M 289.300 277.200 H 283.400 C 283.300 277.200 283.400 277.300 283.400 277.200 V 271.400 C 283.400 271.300 283.300 271.400 283.400 271.400 H 295.200 C 295.300 271.400 295.200 271.300 295.200 271.400 V 277.200 C 295.200 277.300 295.300 277.200 295.200 277.200 H 289.300 Z" stroke="rgb(0,0,255)" stroke-width="0.20" />
  <path d="M 313.300 277.200 H 307.400 C 307.300 277.200 307.400 277.300 307.400 277.200 V 271.400 C 307.400 271.300 307.300 271.400 307.400 271.400 H 319.200 C 319.300 271.400 319.200 271.300 319.200 271.400 V 277.200 C 319.200 277.300 319.300 277.200 319.200 277.200 H 313.300 Z" stroke="rgb(0,0,255)" stroke-width="0.20" />
  <path d="M 337.300 277.200 H 331.400 C 331.300 277.200 331.400 277.300 331.400 277.200 V 271.400 C 331.400 271.300 331.300 271.400 331.400 271.400 H 343.200 C 343.300 271.400 343.200 271.300 343.200 271.400 V 277.200 C 343.200 277.300 343.300 277.200 343.200 277.200 H 337.300 Z" stroke="rgb(0,0,255)" stroke-width="0.20" />
  <text dominant-baseline="hanging" font-size="4px" style="font-family: sans-serif ; font-weight: normal; font-style: normal; fill: rgb(255,0,0)" text-anchor="middle" transform="matrix( 1.000 0.000 0.000 1.000 313.300 196.400 )">right</text><path d="M 269.300 283.400 H 357.300 C 357.355 283.400 357.400 283.355 357.400 283.300 V 264.400 C 357.400 264.300 357.300 264.400 357.400 264.400 H 363.300 C 363.355 264.400 363.400 264.355 363.400 264.300 V 252.300 C 363.400 252.245 363.355 252.200 363.300 252.200 H 357.400 C 357.300 252.200 357.400 252.300 357.400 252.200 V 240.400 C 357.400 240.300 357.300 240.400 357.400 240.400 H 363.300 C 363.355 240.400 363.400 240.355 363.400 240.300 V 228.300 C 363.400 228.245 363.355 228.200 363.300 228.200 H 357.400 C 357.300 228.200 357.400 228.300 357.400 228.200 V 216.400 C 357.400 216.300 357.300 216.400 357.400 216.400 H 363.300 C 363.355 216.400 363.400 216.355 363.400 216.300 V 204.300 C 363.400 204.245 363.355 204.200 363.300 204.200 H 357.400 C 357.300 204.200 357.400 204.300 357.400 204.200 V 192.400 C 357.400 192.300 357.300 192.400 357.400 192.400 H 363.300 C 363.355 192.400 363.400 192.355 363.400 192.300 V 180.300 C 363.400 180.245 363.355 180.200 363.300 180.200 H 357.400 C 357.300 180.200 357.400 180.300 357.400 180.200 V 168.400 C 357.400 168.300 357.300 168.400 357.400 168.400 H 363.300 C 363.355 168.400 363.400 168.355 363.400 168.300 V 156.300 C 363.400 156.245 363.355 156.200 363.300 156.200 H 357.400 C 357.300 156.200 357.400 156.300 357.400 156.200 V 144.400 C 357.400 144.300 357.300 144.400 357.400 144.400 H 363.300 C 363.355 144.400 363.400 144.355 363.400 144.300 V 132.300 C 363.400 132.245 363.355 132.200 363.300 132.200 H 357.400 C 357.300 132.200 357.400 132.300 357.400 132.200 V 113.300 C 357.400 113.245 357.355 113.200 357.300 113.200 H 269.300 C 269.245 113.200 269.200 113.245 269.200 113.300 V 132.200 C 269.200 132.300 269.300 132.200 269.200 132.200 H 263.300 C 263.245 132.200 263.200 132.245 263.200 132.300 V 144.300 C 263.200 144.355 263.245 144.400 263.300 144.400 H 269.200 C 269.300 144.400 269.200 144.300 269.200 144.400 V 156.200 C 269.200 156.300 269.300 156.200 269.200 156.200 H 263.300 C 263.245 156.200 263.200 156.245 263.200 156.300 V 168.300 C 263.200 168.355 263.245 168.400 263.300 168.400 H 269.200 C 269.300 168.400 269.200 168.300 269.200 168.400 V 180.200 C 269.200 180.300 269.300 180.200 269.200 180.200 H 263.300 C 263.245 180.200 263.200 180.245 263.200 180.300 V 192.300 C 263.200 192.355 263.245 192.400 263.300 192.400 H 269.200 C 269.300 192.400 269.200 192.300 269.200 192.400 V 204.200 C 269.200 204.300 269.300 204.200 269.200 204.200 H 263.300 C 263.245 204.200 263.200 204.245 263.200 204.300 V 216.300 C 263.200 216.355 263.245 216.400 263.300 216.400 H 269.200 C 269.300 216.400 269.200 216.300 269.200 216.400 V 228.200 C 269.200 228.300 269.300 228.200 269.200 228.200 H 263.300 C 263.245 228.200 263.200 228.245 263.200 228.300 V 240.300 C 263.200 240.355 263.245 240.400 263.300 240.400 H 269.200 C 269.300 240.400 269.200 240.300 269.200 240.400 V 252.200 C 269.200 252.300 269.300 252.200 269.200 252.200 H 263.300 C 263.245 252.200 263.200 252.245 263.200 252.300 V 264.300 C 263.200 264.355 263.245 264.400 263.300 264.400 H 269.200 C 269.300 264.400 269.200 264.300 269.200 264.400 V 283.300 C 269.200 283.355 269.245 283.400 269.300 283.400" stroke="rgb(0,0,0)" stroke-width="0.20" />
</g>
</svg>